<svg width="850" height="591" viewBox="0 0 850 591" fill="none" xmlns="http://www.w3.org/2000/svg">
<g clip-path="url(#clip0_1_2)">
<path d="M850 0H-1V591H850V0Z" fill="#9FC932"/>
<path d="M364.262 237.101C368.69 238.572 373.106 239.473 377.548 240.236C382.478 241.082 387.434 241.699 392.404 242.192C395.915 242.545 399.44 242.76 402.951 243.045C409.175 243.551 415.412 243.835 421.655 243.912C430.176 244.016 438.697 243.974 447.217 243.863C451.718 243.808 456.22 243.558 460.714 243.26C465.532 242.941 470.344 242.469 475.155 242.039C479.643 241.637 484.105 241.006 488.553 240.243C492.249 239.612 495.938 238.96 499.542 237.857C501.476 237.268 503.37 236.581 505.046 235.173C505.376 235.458 505.706 235.721 506.01 236.019C508.921 238.856 511.541 241.977 514.121 245.139C515.745 247.13 517.468 249.03 519.111 251.006C520.787 253.025 522.523 255.001 524.068 257.123C533.862 270.578 543.577 284.087 552.896 297.916C557.351 304.533 561.443 311.385 565.384 318.354C569.04 324.825 572.743 331.268 576.412 337.731C582.253 348.037 587.302 358.759 591.737 369.8C592.813 372.477 593.711 375.216 594.272 378.088C595.519 384.475 594.595 390.564 592.087 396.438C590.153 400.967 587.395 404.892 584.055 408.388C571.37 421.641 556.606 431.752 540.686 440.102C526.906 447.329 512.491 452.794 497.608 456.913C489.576 459.133 481.458 460.922 473.267 462.309C467.803 463.231 462.311 463.946 456.807 464.521C445.554 465.693 434.281 466.068 422.982 465.735C418.322 465.596 413.656 465.27 409.01 464.868C404.416 464.473 399.829 463.96 395.255 463.342C389.012 462.503 382.821 461.345 376.663 459.958C364.711 457.267 353.009 453.695 341.611 449.035C328.213 443.563 315.475 436.753 303.614 428.188C295.133 422.057 287.286 415.149 280.25 407.236C278.99 405.822 277.749 404.386 276.541 402.923C275.036 401.099 273.914 399.011 272.997 396.806C270.278 390.245 269.182 383.4 269.776 376.271C269.829 375.66 269.981 375.029 270.205 374.467C272.608 368.482 275.036 362.504 277.465 356.526C277.63 356.124 277.696 355.631 278.231 355.43C278.673 355.597 278.752 356.068 278.904 356.47C280.092 359.591 281.28 362.719 282.461 365.84C284.771 371.929 287.095 378.011 289.365 384.114C289.768 385.189 290.375 385.924 291.319 386.486C293.813 387.97 296.46 388.879 299.311 389.191C304.307 389.739 309.013 388.594 313.561 386.514C318.808 384.121 323.381 380.674 327.434 376.486C336.944 366.665 343.122 354.889 345.848 341.164C346.831 336.227 347.148 331.226 346.587 326.191C346.039 321.316 344.765 316.704 342.172 312.557C341.419 311.357 340.535 310.316 339.439 309.429C331.902 303.263 324.385 297.07 316.867 290.877C316.445 290.53 316.049 290.149 315.712 289.851C315.593 289.095 315.956 288.63 316.247 288.165C322.431 278.241 328.51 268.24 335.591 258.975C337.67 256.256 339.888 253.683 342.251 251.235C342.515 250.958 342.805 250.708 343.056 250.465C343.492 250.59 343.399 250.916 343.386 251.173C343.313 253.059 343.043 254.925 342.554 256.735C342.185 258.115 341.947 259.509 341.822 260.931C341.472 264.96 341.135 268.996 340.799 273.026C340.779 273.255 340.759 273.483 340.766 273.705C340.779 274.156 341.017 274.434 341.465 274.489C341.789 274.531 342.112 274.531 342.442 274.531C347.491 274.552 352.54 274.565 357.589 274.586C357.86 274.586 358.13 274.572 358.401 274.565C359.048 274.558 359.556 274.309 359.866 273.685C360.018 273.386 360.196 273.095 360.368 272.804C364.519 265.577 368.671 258.351 372.815 251.131C372.954 250.889 373.079 250.632 373.244 250.403C373.739 249.716 373.7 249.023 373.244 248.35C372.895 247.844 372.525 247.345 372.109 246.901C370.281 244.98 368.162 243.516 365.701 242.636C363.285 241.769 360.843 240.999 358.256 240.936C358.104 240.936 357.959 240.832 357.754 240.763C357.965 238.8 358.177 236.852 358.388 234.896C360.374 235.652 362.255 236.359 364.262 237.101Z" fill="black"/>
<path d="M348.93 263.088C348.072 262.436 347.333 261.784 346.6 261.104C345.907 260.466 345.254 259.773 344.541 259.162C343.868 258.587 343.723 257.969 343.94 257.061C344.713 253.787 345.076 250.445 345.307 247.088C345.821 239.57 344.29 232.469 341.261 225.686C340.06 222.995 338.641 220.436 337.136 217.925C334.067 212.807 331.262 207.536 328.49 202.238C324.814 195.192 322.2 187.729 320.266 179.976C319.052 175.121 318.068 170.211 317.382 165.245C316.656 159.975 316.412 154.69 317.006 149.384C317.448 145.411 318.293 141.534 319.336 137.685C320.042 135.07 321.164 132.705 322.497 130.417C326.12 124.175 330.674 118.772 335.869 113.945C342.746 107.558 350.428 102.44 358.639 98.1748C368.499 93.0427 378.841 89.3046 389.52 86.579C395.797 84.977 402.146 83.7633 408.554 82.8895C417.887 81.6204 427.259 81.1834 436.664 81.3638C442.208 81.4747 447.725 81.8562 453.23 82.515C467.308 84.2141 481.016 87.5084 494.196 93.0565C502.796 96.6767 510.94 101.171 518.418 106.941C524.094 111.324 529.202 116.324 533.479 122.226C536.924 126.977 539.67 132.13 541.492 137.81C542.488 140.91 543.208 144.051 543.128 147.352C543.115 147.803 543.168 148.261 543.214 148.719C543.577 151.909 543.439 155.092 543.188 158.282C542.409 168.117 539.505 177.354 536.014 186.419C533.143 193.874 529.895 201.149 526.589 208.396C524.523 212.918 522.484 217.454 520.735 222.128C519.382 225.741 518.286 229.438 517.56 233.252C516.9 236.741 517.091 240.174 518.075 243.565C518.187 243.946 518.299 244.328 518.418 244.709C518.55 245.132 518.458 245.5 518.141 245.791C517.804 246.096 517.428 246.027 517.078 245.826C516.702 245.611 516.299 245.41 515.983 245.111C514.808 244.016 513.653 242.885 512.498 241.762C511.792 241.075 511.415 240.243 511.27 239.23C510.934 236.865 510.524 234.507 510.148 232.143C510.122 231.976 510.115 231.803 510.076 231.636C509.541 229.167 509.673 229.389 507.62 228.467C505.502 227.517 505.31 227.219 505.614 224.847C506.38 218.952 507.495 213.133 509.825 207.682C512.768 200.802 515.144 193.714 517.276 186.53C518.312 183.048 519.441 179.594 520.365 176.078C521.626 171.286 522.391 166.39 522.715 161.431C522.992 157.173 522.437 153.012 521.421 148.899C520.061 143.386 517.751 138.302 514.96 133.454C514.432 132.532 513.93 131.582 513.006 130.978C512.788 130.84 512.656 130.548 512.498 130.32C509.218 125.624 505.165 121.775 500.644 118.446C494.915 114.237 488.685 111.047 482.151 108.508C475.214 105.81 468.073 103.931 460.78 102.613C452.682 101.15 444.518 100.477 436.314 100.436C430.994 100.408 425.681 100.671 420.382 101.205C411.234 102.128 402.225 103.827 393.374 106.435C383.092 109.465 373.244 113.606 364.084 119.424C358.718 122.829 353.735 126.762 349.352 131.485C345.65 135.472 342.521 139.89 340.264 144.96C338.311 149.364 337.301 154.003 337.169 158.851C337.109 160.904 337.123 162.957 337.149 165.01C337.208 169.025 338 172.93 338.924 176.806C340.159 181.959 341.842 186.946 343.828 191.835C348.257 202.751 352.078 213.903 355.193 225.311C355.609 226.844 356.032 228.384 356.322 229.944C356.606 231.442 356.903 232.975 356.87 234.487C356.817 236.588 356.474 238.676 356.23 240.77C355.669 245.528 354.448 250.16 353.616 254.862C353.26 256.881 352.864 258.885 352.481 260.896C352.441 261.118 352.362 261.326 352.303 261.562C351.286 262.221 350.164 262.644 348.93 263.088Z" fill="black"/>
<path d="M313.468 290.128C321.613 296.876 329.632 303.603 337.743 310.205C342.244 313.874 344.713 318.68 345.63 324.478C346.455 329.666 346.171 334.833 345.155 339.951C342.924 351.116 338.113 360.971 331.315 369.8C327.638 374.571 323.434 378.76 318.563 382.179C315.158 384.572 311.541 386.486 307.561 387.603C304.321 388.511 301.054 388.809 297.734 388.144C295.741 387.741 293.912 386.923 292.157 385.855C291.061 385.189 290.513 384.204 290.329 383.005C290.203 382.2 289.952 381.465 289.662 380.73C286.956 373.892 284.283 367.033 281.511 360.215C278.647 353.183 276.323 345.957 274.264 338.626C270.991 326.975 267.222 315.504 262.562 304.373C260.945 300.51 259.196 296.716 257.5 292.895C256.576 290.815 255.342 288.942 253.949 287.181C251.514 284.108 248.9 281.209 246.076 278.532C243.739 276.306 241.165 274.399 238.472 272.672C237.964 272.346 237.443 272.034 236.948 271.687C235.852 270.931 235.687 269.558 236.525 268.469C237.218 267.568 238.076 266.881 239.014 266.285C240.551 265.307 242.182 264.544 243.858 263.864C248.023 262.186 252.319 261.007 256.695 260.133C260.86 259.301 265.051 258.684 269.294 258.691C271.03 258.691 272.766 258.691 274.489 259.024C275.914 259.301 277.109 259.897 278.237 260.903C280.765 263.15 283.412 265.244 286.012 267.394C295.133 274.94 304.255 282.492 313.468 290.128ZM252.22 271.34C255.606 270.834 258.965 270.21 262.285 269.322C265.334 268.504 268.357 267.582 271.255 266.271C272.396 265.751 273.512 265.161 274.614 264.551C275.182 264.232 275.723 263.823 276.218 263.386C276.752 262.921 277.406 262.429 277.267 261.583C277.115 260.632 276.238 260.515 275.545 260.223C275.294 260.119 275.017 260.092 274.753 260.029C272.614 259.564 270.443 259.53 268.271 259.606C263.209 259.786 258.233 260.619 253.309 261.825C249.554 262.741 245.858 263.864 242.333 265.543C241.152 266.104 240.004 266.763 238.895 267.478C238.307 267.859 237.786 268.4 237.337 268.955C236.816 269.6 236.935 270.279 237.634 270.675C238.202 270.994 238.822 271.236 239.449 271.396C241.416 271.909 243.436 271.93 245.442 271.847C247.6 271.757 249.765 271.535 252.22 271.34Z" fill="black"/>
<path d="M265.532 225.887C264.067 226.664 262.681 227.323 261.381 228.148C260.464 228.73 259.619 229.479 258.847 230.263C257.956 231.172 257.573 232.351 257.599 233.675C257.632 235.291 258.286 236.533 259.606 237.351C260.114 237.67 260.681 237.885 261.216 238.169C261.896 238.523 262.609 238.835 263.229 239.279C266.14 241.366 266.536 245.361 264.067 248.024C263.434 248.711 262.661 249.273 261.916 249.834C261.256 250.334 260.536 250.743 259.863 251.221C258.061 252.497 257.751 253.031 257.461 255.237C256.906 255.556 256.438 255.251 256.002 254.925C255.5 254.55 255.151 254.051 255.071 253.385C254.979 252.629 255.038 251.873 255.461 251.249C255.956 250.507 256.517 249.807 257.111 249.155C257.711 248.496 258.391 247.927 259.025 247.296C259.546 246.776 259.942 246.173 260.147 245.437C260.325 244.799 260.173 244.293 259.592 244.009C259.005 243.724 258.385 243.489 257.751 243.35C255.731 242.906 253.685 242.684 251.613 242.656C250.425 242.642 249.217 242.587 248.056 242.337C245.046 241.685 243.172 239.258 243 236.061C242.901 234.23 243.297 232.545 244.234 231.012C244.795 230.104 245.389 229.216 246.029 228.37C248.379 225.27 248.32 221.962 246.729 218.584C246.208 217.475 245.416 216.511 244.683 215.373C244.947 215.172 245.27 214.915 245.607 214.666C246.59 213.938 247.462 213.078 248.075 211.982C248.267 211.642 248.432 211.274 248.564 210.907C248.702 210.512 248.471 210.012 248.135 209.929C247.759 209.832 247.508 210.054 247.323 210.352C246.96 210.921 246.689 211.566 246.26 212.065C244.729 213.854 242.875 215.019 240.545 215.345C236.532 215.914 232.763 215.151 229.213 213.175C228.355 212.696 227.563 212.079 226.797 211.448C226.025 210.81 225.431 209.984 224.975 209.062C223.867 206.815 224.018 204.672 225.484 202.647C225.774 202.245 226.117 201.87 226.487 201.419C226.276 201.149 226.084 200.892 225.88 200.65C224.263 198.736 223.867 196.523 224.533 194.103C225.754 189.699 229.972 185.961 234.572 185.538C236.143 185.392 237.568 185.864 238.829 186.904C239.957 187.833 240.855 188.957 241.607 190.226C243.64 193.673 241.97 198.264 239.251 200.005C238.076 200.754 236.822 200.969 235.502 200.476C234.229 199.998 233.47 198.777 233.582 197.439C233.661 196.53 233.998 196.197 234.928 196.135C234.981 196.128 235.034 196.156 235.087 196.149C235.43 196.142 235.74 196.059 235.832 195.649C235.918 195.275 235.661 194.873 235.271 194.734C233.978 194.269 232.678 195.067 232.282 196.572C231.82 198.319 232.447 200.164 233.905 201.253C235.12 202.162 236.492 202.453 237.931 202.113C238.657 201.94 239.39 201.634 240.03 201.225C242.98 199.353 244.591 195.018 243.673 191.537C243.29 190.067 242.459 188.874 241.548 187.729C241.205 187.299 240.842 186.883 240.446 186.419C241.97 184.276 242.736 181.98 242.01 179.268C242.347 179.116 242.624 178.977 242.908 178.866C244.102 178.401 245.158 177.715 245.957 176.668C246.287 176.238 246.511 175.697 246.716 175.177C246.854 174.83 246.696 174.511 246.392 174.303C246.128 174.122 245.779 174.233 245.554 174.573C245.462 174.712 245.396 174.871 245.317 175.017C244.228 176.98 242.525 177.833 240.446 177.881C239.014 177.916 237.898 177.118 236.71 176.092C237.278 175.815 237.7 175.614 238.109 175.392C239.568 174.608 240.65 173.457 241.251 171.841C241.911 170.079 241.786 168.366 240.822 166.764C239.997 165.398 238.565 164.829 237.159 165.231C235.568 165.689 234.611 167.423 235.027 169.101C235.067 169.261 235.126 169.448 235.238 169.552C235.39 169.698 235.621 169.892 235.766 169.85C235.997 169.788 236.301 169.587 236.354 169.379C236.453 169.011 236.36 168.595 236.393 168.2C236.512 166.847 237.799 166.175 238.921 166.861C239.522 167.229 239.885 167.804 240.03 168.484C240.149 169.032 240.188 169.615 240.162 170.176C240.05 172.819 236.71 175.759 233.628 174.178C229.886 172.257 229.232 168.581 230.533 165.433C230.724 164.968 230.975 164.524 231.245 163.983C230.83 163.643 230.407 163.31 229.998 162.964C227.675 161.001 226.546 158.463 226.777 155.328C226.883 153.83 227.292 152.429 228.282 151.132C228.5 151.333 228.691 151.5 228.869 151.687C228.982 151.805 229.061 151.964 229.166 152.096C231.067 154.537 233.483 155.037 236.123 153.518C237.139 152.935 237.984 152.138 238.637 151.132C239.522 149.787 239.733 148.289 239.423 146.721C239.33 146.243 239.06 145.778 238.796 145.355C238.604 145.043 238.268 144.974 237.931 145.14C237.634 145.286 237.522 145.633 237.647 146.007C237.7 146.167 237.779 146.319 237.845 146.472C238.36 147.658 238.241 148.83 237.654 149.925C236.743 151.625 235.311 152.602 233.483 152.859C232.394 153.012 231.463 152.54 230.684 151.749C229.556 150.591 228.916 149.163 228.698 147.533C227.866 141.388 231.971 137.144 236.169 136.152C238.604 135.576 240.914 135.895 243.125 137.068C244.775 137.941 246.036 139.197 246.788 141.021C247.785 143.434 248.65 145.889 249.059 148.49C249.244 149.669 249.369 150.855 249.171 152.082C247.132 152.921 245.501 154.315 244.109 156.021C243.759 156.451 243.482 156.944 243.205 157.436C243.026 157.748 243.185 158.151 243.482 158.296C243.779 158.442 244.016 158.303 244.201 158.088C244.419 157.832 244.584 157.533 244.795 157.277C245.818 155.994 246.993 154.912 248.392 154.114C249.514 153.476 250.689 153.095 251.989 153.442C252.148 153.483 252.339 153.559 252.464 153.497C252.689 153.379 252.946 153.213 253.052 152.991C253.177 152.727 253.052 152.422 252.788 152.263C252.557 152.124 252.299 152.006 252.042 151.951C251.679 151.867 251.303 151.84 250.887 151.777C250.669 150.203 250.544 148.67 250.227 147.193C249.89 145.646 249.442 144.107 248.9 142.623C248.379 141.194 247.679 139.835 247.026 138.378C248.894 135.216 251.415 132.802 254.801 131.485C256.556 130.798 258.365 130.569 260.239 130.992C261.467 131.27 262.648 131.672 263.79 132.192C266.344 133.357 267.935 135.396 268.76 138.17C269.552 140.84 269.466 143.455 268.443 146.028C267.77 147.727 266.621 148.948 265.051 149.794C263.335 150.716 260.252 149.773 259.19 148.448C257.843 146.777 257.949 143.85 259.474 142.359C259.784 142.061 260.18 141.811 260.576 141.666C261.335 141.381 262.074 141.423 262.648 142.144C262.754 142.276 262.853 142.463 262.985 142.505C263.222 142.574 263.513 142.636 263.731 142.553C264.028 142.449 264.12 141.998 263.988 141.672C263.526 140.521 262.193 139.786 260.879 140.015C259.771 140.209 258.833 140.764 258.114 141.679C255.923 144.467 256.306 149.482 260.417 150.966C261.335 151.299 262.305 151.451 263.374 151.722C263.414 151.985 263.493 152.36 263.533 152.741C263.744 154.773 264.443 156.611 265.592 158.248C265.942 158.74 266.377 159.17 266.839 159.697C267.242 159.33 267.559 159.045 267.862 158.754C269.697 157.027 271.783 156.909 273.796 158.421C274.601 159.024 275.241 159.794 275.809 160.64C276.086 161.05 276.363 161.466 276.673 161.916C277.01 161.708 277.28 161.535 277.564 161.375C280.382 159.78 283.451 159.884 286.012 162.721C287.959 164.885 289.207 167.444 289.913 170.315C290.23 171.598 290.408 172.895 290.236 174.213C290.15 174.878 290.315 175.433 290.573 176.009C291.286 177.618 291.781 179.296 291.985 181.072C293.087 190.51 286.514 198.5 278.95 200.005C278.475 200.102 277.98 200.136 277.498 200.15C276.185 200.185 275.069 199.734 274.152 198.701C272.878 197.265 271.829 195.684 271.189 193.839C270.515 191.911 270.383 189.949 271.03 187.972C271.486 186.578 272.324 185.468 273.479 184.65C275.036 183.54 276.719 183.395 278.442 184.13C279.927 184.761 280.825 186.266 280.792 187.903C280.759 189.394 279.729 190.635 278.33 190.871C277.703 190.975 277.142 190.788 276.64 190.42C276.376 190.226 276.172 189.935 275.894 189.768C275.743 189.678 275.419 189.664 275.307 189.768C275.135 189.935 274.951 190.254 274.99 190.462C275.05 190.774 275.248 191.1 275.472 191.322C276.614 192.459 277.973 192.639 279.406 192.085C281.676 191.204 282.745 188.742 281.98 186.197C281.392 184.241 280.099 183 278.251 182.472C276.079 181.848 274.04 182.244 272.264 183.742C270.027 185.635 269.063 188.139 269.222 191.128C269.327 193.16 269.902 195.06 270.997 196.745C271.67 197.772 272.35 198.867 273.254 199.637C274.31 200.539 274.449 201.565 274.317 202.807C274.211 203.798 273.848 204.679 273.301 205.477C273.05 205.844 272.759 206.184 272.443 206.593C272.746 206.919 273.05 207.231 273.34 207.557C275.498 210.005 276.317 212.953 276.106 216.212C275.987 218.043 275.168 219.583 273.921 220.873C272.753 222.086 271.406 223.044 269.928 223.786C268.522 224.507 267.077 225.166 265.532 225.887ZM265.532 190.795C266.826 189.72 267.889 188.43 268.707 186.932C270.212 184.206 270.746 181.3 270.053 178.207C269.314 174.885 267.671 172.243 264.806 170.516C264.1 170.086 263.361 169.732 262.523 169.67C262.14 169.642 261.744 169.594 261.559 170.058C261.407 170.433 261.671 170.794 262.285 170.96C264.767 171.633 266.476 173.325 267.631 175.62C270.529 181.377 268.139 187.008 264.166 189.969C263.922 190.157 263.599 190.233 263.315 190.358C262.754 189.858 262.285 189.38 261.757 188.985C261.229 188.589 260.668 188.243 260.087 187.944C259.797 187.792 259.447 187.833 259.223 188.18C259.051 188.451 259.144 188.811 259.48 189.054C259.658 189.179 259.863 189.269 260.048 189.387C261.592 190.427 262.78 191.793 263.552 193.562C264.028 194.658 264.377 195.788 264.536 196.988C264.589 197.369 264.721 197.758 264.899 198.091C265.07 198.423 265.73 198.333 265.856 197.973C265.942 197.716 265.994 197.418 265.968 197.147C265.843 195.774 265.526 194.457 264.958 193.208C264.747 192.75 264.542 192.293 264.311 191.773C264.674 191.481 265.018 191.211 265.532 190.795Z" fill="white"/>
<path d="M488.777 221.622C492.678 222.232 496.367 223.148 499.991 224.34C501.199 224.736 502.288 225.374 503.146 226.372C503.74 227.059 503.759 227.607 503.344 228.404C503.179 228.723 502.928 228.876 502.618 229.029C500.334 230.131 497.918 230.776 495.476 231.303C490.903 232.288 486.283 232.919 481.643 233.446C475.168 234.182 468.674 234.66 462.173 234.986C456.972 235.25 451.765 235.354 446.557 235.52C436.195 235.853 425.827 235.666 415.471 235.333C409.234 235.132 403.004 234.771 396.78 234.355C390.173 233.911 383.587 233.259 377.026 232.309C372.624 231.671 368.228 230.95 363.945 229.646C362.909 229.327 361.886 228.938 360.876 228.522C360.374 228.314 359.906 228.009 359.457 227.697C359.035 227.406 358.962 227.017 359.153 226.497C359.417 225.769 359.906 225.221 360.539 224.874C361.496 224.347 362.467 223.799 363.496 223.48C365.575 222.835 367.674 222.246 369.799 221.809C374.802 220.776 379.871 220.179 384.946 219.666C396.509 218.487 408.112 218.064 419.722 217.814C420.144 217.807 420.573 217.814 421.055 217.814C421.471 219.07 421.147 220.269 421.266 221.532C421.688 222.142 422.401 222.447 423.081 222.78C426.091 224.278 429.272 224.805 432.578 224.625C434.38 224.528 436.129 224.181 437.799 223.446C438.756 223.03 439.654 222.503 440.426 221.761C440.842 221.365 441.119 220.921 441.152 220.297C441.191 219.562 441.31 218.834 441.403 218.036C441.904 218.009 442.327 217.946 442.749 217.96C448.009 218.161 453.269 218.335 458.523 218.598C462.529 218.799 466.542 219.063 470.542 219.409C474.323 219.735 478.099 220.172 481.874 220.623C484.131 220.88 486.382 221.261 488.777 221.622Z" fill="black"/>
<path d="M416.158 208.223C411.94 201.6 411.524 194.658 414.468 187.611C417.702 179.872 423.451 175.086 431.39 173.637C440.294 172.014 448.115 176.501 451.699 184.061C454.141 189.214 454.451 194.623 452.623 200.005C449.514 209.18 443.257 214.548 434.116 216.185C426.836 216.885 420.764 214.527 416.158 208.223Z" fill="black"/>
<path d="M459.955 241.255C446.933 241.866 434.07 241.88 421.207 241.561C414.97 241.408 408.733 241.027 402.502 240.68C398.872 240.479 395.242 240.222 391.625 239.855C387.197 239.411 382.781 238.849 378.359 238.294C374.426 237.795 370.519 237.101 366.664 236.13C365.087 235.735 363.523 235.236 361.972 234.729C361.252 234.494 360.572 234.112 359.866 233.821C358.995 233.46 358.606 232.843 358.698 231.83C358.777 231.005 358.678 230.159 358.777 229.181C359.167 229.348 359.417 229.424 359.642 229.563C361.919 230.957 364.42 231.719 366.961 232.337C370.822 233.28 374.729 233.939 378.663 234.438C382.108 234.875 385.553 235.312 389.012 235.673C391.87 235.971 394.741 236.214 397.612 236.394C402.271 236.685 406.931 236.935 411.597 237.15C423.642 237.698 435.694 237.663 447.745 237.455C452.088 237.379 456.424 237.129 460.76 236.928C463.42 236.803 466.073 236.664 468.727 236.463C472.079 236.207 475.439 235.922 478.785 235.562C481.861 235.236 484.936 234.861 487.999 234.403C492.295 233.765 496.572 232.968 500.671 231.394C501.436 231.102 502.182 230.769 502.941 230.457C503.179 230.36 503.423 230.284 503.733 230.173C503.99 230.873 503.905 231.498 503.931 232.108C503.951 232.503 503.971 232.912 503.911 233.301C503.799 234.022 503.37 234.556 502.789 234.903C502.182 235.27 501.535 235.575 500.875 235.832C498.427 236.789 495.879 237.351 493.318 237.85C488.137 238.856 482.91 239.473 477.67 240C471.815 240.576 465.968 240.936 459.955 241.255Z" fill="black"/>
<path d="M362.764 265.765C361.668 267.665 360.632 269.461 359.615 271.23C359.12 271.174 359.173 270.834 359.147 270.591C359.094 270.141 359.081 269.683 359.061 269.225C358.797 263.414 358.533 257.609 358.276 251.797C358.163 249.349 358.058 246.901 357.959 244.453C357.939 243.891 357.952 243.329 357.952 242.67C358.322 242.615 358.632 242.49 358.922 242.525C359.893 242.643 360.869 242.74 361.813 242.975C364.744 243.711 367.456 244.994 369.898 246.859C371.073 247.761 371.462 248.232 372.116 249.467C369.04 254.835 365.932 260.244 362.764 265.765Z" fill="black"/>
<path d="M342.739 266.985C343.056 264.71 342.964 262.533 343.452 260.272C345.419 261.707 346.963 263.469 348.712 264.967C350.362 264.121 351.92 263.33 353.464 262.526C353.656 262.429 353.807 262.262 353.88 262.207C354.712 257.9 355.523 253.718 356.335 249.543C356.368 249.39 356.447 249.252 356.527 249.044C356.857 250.743 357.82 271.202 357.662 272.887C357.622 272.922 357.576 272.963 357.536 272.991C357.49 273.019 357.444 273.067 357.398 273.067C352.784 273.081 348.178 273.088 343.564 273.088C343.294 273.088 343.023 273.074 342.752 273.047C342.653 273.033 342.568 272.949 342.396 272.859C342.224 270.959 342.693 269.059 342.739 266.985Z" fill="black"/>
<path d="M438.136 216.705C438.815 216.462 439.376 216.254 440.076 215.997C439.951 217.454 439.865 218.806 439.7 220.152C439.667 220.436 439.376 220.734 439.139 220.935C438.287 221.663 437.297 222.135 436.248 222.44C431.839 223.737 427.569 223.328 423.424 221.296C423.325 221.247 423.233 221.185 423.147 221.122C423.061 221.06 422.982 220.984 422.843 220.866C422.566 219.34 422.784 217.752 422.606 216.053C423.946 216.4 425.16 216.788 426.401 217.003C427.681 217.225 428.981 217.336 430.275 217.391C431.569 217.447 432.882 217.44 434.169 217.329C435.449 217.218 436.73 216.947 438.136 216.705Z" fill="black"/>
<path d="M504.941 231.99C504.961 231.158 504.954 230.471 505 229.792C505.04 229.244 505.403 228.959 505.891 229.119C506.512 229.32 507.099 229.625 507.726 229.798C508.505 230.013 508.927 230.534 509.086 231.317C509.435 233.1 509.772 234.882 510.089 236.671C510.135 236.942 510.089 237.233 510.049 237.51C510.016 237.746 509.6 237.961 509.396 237.85C509.158 237.725 508.921 237.58 508.723 237.399C507.733 236.512 506.769 235.589 505.766 234.722C505.178 234.216 504.829 233.641 504.928 232.822C504.954 232.6 504.941 232.371 504.941 231.99Z" fill="black"/>
<path d="M264.589 267.699C258.589 269.406 252.629 270.557 246.538 270.841C245.079 270.91 243.614 270.813 242.155 270.682C241.528 270.626 240.888 270.376 240.32 270.071C239.601 269.683 239.469 268.837 240.004 268.192C240.386 267.727 240.848 267.283 241.363 266.999C242.564 266.347 243.785 265.723 245.046 265.217C248.9 263.663 252.907 262.651 256.952 261.839C260.787 261.069 264.641 260.438 268.562 260.376C269.644 260.355 270.733 260.362 271.809 260.445C272.502 260.501 273.215 260.632 273.868 260.882C275.122 261.354 275.347 262.449 274.37 263.372C273.776 263.934 273.063 264.398 272.35 264.78C270.614 265.716 268.766 266.389 266.899 266.985C266.173 267.221 265.447 267.443 264.589 267.699Z" fill="black"/>
<path d="M402.251 276.736H381.164V287.819H402.251V276.736Z" fill="white"/>
<path d="M411.637 327.53C416.412 327.53 420.283 323.462 420.283 318.445C420.283 313.427 416.412 309.359 411.637 309.359C406.862 309.359 402.991 313.427 402.991 318.445C402.991 323.462 406.862 327.53 411.637 327.53Z" fill="#9FC932"/>
<path d="M420.54 265.446C420.316 261.728 416.534 258.767 411.907 258.767C407.274 258.767 403.492 261.728 403.274 265.446H403.261V290.537H403.321C403.822 294.033 407.472 296.744 411.907 296.744C416.342 296.744 419.992 294.033 420.494 290.537H420.553V265.446H420.54Z" fill="#9FC932"/>
<path d="M414.303 447.197C418.006 446.989 420.956 443.466 420.956 439.152C420.956 434.838 418.006 431.315 414.303 431.107V431.1H389.322V431.156C385.844 431.621 383.138 435.019 383.138 439.152C383.138 443.286 385.837 446.684 389.322 447.149V447.204H414.303V447.197Z" fill="#9FC932"/>
<path d="M478.772 447.197C482.474 446.989 485.425 443.466 485.425 439.152C485.425 434.838 482.474 431.315 478.772 431.107V431.1H453.791V431.156C450.313 431.621 447.607 435.019 447.607 439.152C447.607 443.286 450.306 446.684 453.791 447.149V447.204H478.772V447.197Z" fill="#9FC932"/>
<path d="M466.364 265.446C466.139 261.728 462.358 258.767 457.731 258.767C453.104 258.767 449.316 261.728 449.098 265.446H449.085V290.537H449.144C449.646 294.033 453.296 296.744 457.731 296.744C462.166 296.744 465.816 294.033 466.318 290.537H466.377V265.446H466.364Z" fill="#9FC932"/>
<path d="M457.46 327.53C462.235 327.53 466.106 323.462 466.106 318.445C466.106 313.427 462.235 309.359 457.46 309.359C452.685 309.359 448.814 313.427 448.814 318.445C448.814 323.462 452.685 327.53 457.46 327.53Z" fill="#9FC932"/>
<path d="M457.731 359.12C462.506 359.12 466.377 355.052 466.377 350.035C466.377 345.017 462.506 340.949 457.731 340.949C452.956 340.949 449.085 345.017 449.085 350.035C449.085 355.052 452.956 359.12 457.731 359.12Z" fill="#9FC932"/>
<path d="M411.637 359.12C416.412 359.12 420.283 355.052 420.283 350.035C420.283 345.017 416.412 340.949 411.637 340.949C406.862 340.949 402.991 345.017 402.991 350.035C402.991 355.052 406.862 359.12 411.637 359.12Z" fill="#9FC932"/>
<path d="M412.31 400.787C417.085 400.787 420.956 396.719 420.956 391.701C420.956 386.684 417.085 382.616 412.31 382.616C407.535 382.616 403.664 386.684 403.664 391.701C403.664 396.719 407.535 400.787 412.31 400.787Z" fill="#9FC932"/>
<path d="M487.2 276.736H467.321V287.819H487.2V276.736Z" fill="white"/>
<path d="M487.207 328.702H440.096V339.784H487.207V328.702Z" fill="white"/>
<path d="M428.645 328.702H381.164V339.784H428.645V328.702Z" fill="white"/>
<path d="M447.706 276.896H422.401V287.666H447.706V276.896Z" fill="white"/>
<path d="M429.668 351.338V317.148C429.668 314.526 431.694 312.397 434.189 312.397C436.684 312.397 438.71 314.526 438.71 317.148V351.338C438.71 353.96 436.684 356.089 434.189 356.089C431.687 356.082 429.668 353.96 429.668 351.338Z" fill="white"/>
<path d="M422.401 290.62C422.401 290.62 428.064 290.593 431.153 290.634C435.555 290.69 440.894 290.627 440.894 290.627C440.894 290.627 441 298.09 434.578 304.838C429.259 310.427 419.893 312.009 419.893 312.009C419.893 312.009 416.606 307.286 411.643 307.473C404.984 307.723 402.997 312.009 402.997 312.009L389.553 312.057L389.692 299.907L414.838 299.927C414.838 299.927 418.098 299.532 420.434 296.411C420.428 296.391 422.507 294.171 422.401 290.62Z" fill="white"/>
<path d="M424.124 378.427L424.46 393.546C424.46 393.546 424.48 395.96 423.14 398.207C421.715 400.592 418.91 401.855 418.91 401.855L419.332 414.921C419.332 414.921 425.272 414.192 430.433 409.109C435.911 403.713 436.123 397.562 436.123 397.562L435.542 378.004" fill="white"/>
<path d="M390.484 367.768L390.338 383.303C390.338 383.303 390.358 385.716 389.018 387.963C387.593 390.349 384.788 391.611 384.788 391.611L385.21 404.677C385.21 404.677 391.15 403.949 396.311 398.865C401.789 393.47 402.001 387.318 402.001 387.318L402.047 367.761" fill="white"/>
<path d="M432.611 420.94L432.466 434.284C432.466 434.284 432.486 436.357 431.146 438.285C429.721 440.331 426.916 441.42 426.916 441.42L427.338 452.641C427.338 452.641 433.278 452.017 438.439 447.648C443.917 443.015 444.128 437.737 444.128 437.737L444.175 420.94" fill="white"/>
<path d="M389.104 300.413H387.223V312.043H389.104V300.413Z" fill="white"/>
<path d="M389.104 299.858H387.223V312.043H389.104V299.858Z" fill="white"/>
<path d="M386.847 299.858H385.494V312.043H386.847V299.858Z" fill="white"/>
<path d="M385.131 299.858H384.075V312.043H385.131V299.858Z" fill="white"/>
<path d="M383.62 299.858H383.171V312.043H383.62V299.858Z" fill="white"/>
<path d="M382.716 299.858H382.267V312.043H382.716V299.858Z" fill="white"/>
<path d="M442.03 290.711L447.435 290.613C447.435 290.613 446.788 298.957 456.774 299.955L478.343 299.491L478.409 311.932L466.166 311.988C466.166 311.988 463.638 308.09 458.404 307.723C452.669 307.32 449.679 311.384 449.679 311.384C449.679 311.384 446.689 311.606 442.34 309.117C439.159 307.3 436.42 304.352 436.42 304.352C436.42 304.352 438.954 301.342 440.347 298.09C440.36 298.104 442.03 294.053 442.03 290.711Z" fill="white"/>
<path d="M480.316 299.491H478.732V311.995H480.316V299.491Z" fill="white"/>
<path d="M481.814 299.491H480.534V311.995H481.814V299.491Z" fill="white"/>
<path d="M483.022 299.491H482.045V311.995H483.022V299.491Z" fill="white"/>
<path d="M483.847 299.491H483.247V311.995H483.847V299.491Z" fill="white"/>
<path d="M484.382 299.491H484.078V311.995H484.382V299.491Z" fill="white"/>
<path d="M435.548 367.768H390.484V378.712H435.548V367.768Z" fill="white"/>
<path d="M417.484 402.389L418.474 402.014L418.745 415.163L417.781 415.33L417.484 402.389Z" fill="white"/>
<path d="M416.62 402.597L417.299 402.43L417.484 415.385L416.824 415.406L416.62 402.597Z" fill="white"/>
<path d="M415.913 402.805L416.468 402.645L416.62 415.385L416.078 415.406L415.913 402.805Z" fill="white"/>
<path d="M415.359 402.874L415.762 402.853L415.914 415.406H415.524L415.359 402.874Z" fill="white"/>
<path d="M415.121 402.874L415.292 402.853L415.358 415.406H415.194L415.121 402.874Z" fill="white"/>
<path d="M383.527 392.083L384.517 391.701L384.788 404.857L383.824 405.017L383.527 392.083Z" fill="white"/>
<path d="M382.663 392.284L383.342 392.124L383.527 405.079L382.867 405.1L382.663 392.284Z" fill="white"/>
<path d="M381.95 392.492L382.511 392.332L382.663 405.079L382.121 405.1L381.95 392.492Z" fill="white"/>
<path d="M381.402 392.561L381.798 392.547L381.95 405.1H381.567L381.402 392.561Z" fill="white"/>
<path d="M381.164 392.561L381.335 392.547L381.401 405.1H381.237L381.164 392.561Z" fill="white"/>
<path d="M425.655 441.878L426.645 441.559L426.916 452.718L425.952 452.856L425.655 441.878Z" fill="white"/>
<path d="M424.79 442.051L425.47 441.912L425.655 452.905L424.995 452.919L424.79 442.051Z" fill="white"/>
<path d="M424.078 442.231L424.639 442.093L424.79 452.905L424.249 452.919L424.078 442.231Z" fill="white"/>
<path d="M423.53 442.287L423.933 442.273L424.078 452.919H423.695L423.53 442.287Z" fill="white"/>
<path d="M423.292 442.287L423.463 442.273L423.529 452.919H423.365L423.292 442.287Z" fill="white"/>
<path d="M485.781 367.768H436.624V378.712H485.781V367.768Z" fill="white"/>
<path d="M477.425 378.712C477.425 383.344 477.881 386.146 476.264 388.65C474.475 391.417 470.588 392.603 466.931 392.596C466.813 392.596 466.7 392.596 466.582 392.596L441.35 393.019V399.76C441.35 399.76 466.628 399.517 466.575 399.559C471.248 399.323 477.188 399.136 480.791 396.473C484.058 394.059 485.563 391.923 485.563 388.934C485.557 388.955 485.59 388.906 485.576 388.927L485.781 378.601" fill="white"/>
<path d="M482.917 404.594C479.491 404.594 464.021 405.704 461.209 404.261C458.101 402.673 457.975 399.205 457.804 395.675C457.797 395.571 457.804 395.467 457.804 395.363L457.645 379.35H449.996C449.996 379.35 450.029 395.405 449.983 395.356C450.247 399.517 449.884 404.185 453.448 408.013C456.418 411.196 458.259 411.564 462.008 412.278C461.988 412.271 462.028 412.285 462.001 412.278L483.055 412.25" fill="white"/>
<path d="M440.927 393.047H439.825V399.76H440.927V393.047Z" fill="white"/>
<path d="M439.291 393.047H438.347V399.76H439.291V393.047Z" fill="white"/>
<path d="M438.037 393.047H437.561V399.76H438.037V393.047Z" fill="white"/>
<path d="M484.369 404.559H483.346V412.271H484.369V404.559Z" fill="white"/>
<path d="M485.464 404.559H484.758V412.271H485.464V404.559Z" fill="white"/>
<path d="M486.342 404.559H485.788V412.271H486.342V404.559Z" fill="white"/>
<path d="M487.207 404.559H486.811V412.271H487.207V404.559Z" fill="white"/>
<path d="M434.017 406.89C434.017 406.89 450.649 406.654 450.649 406.82C452.213 409.414 454.319 411.633 457.474 412.507L457.54 418.492L424.474 418.437C424.474 418.437 424.361 414.38 424.447 414.456C428.935 413.208 432.037 410.087 434.017 406.89Z" fill="white"/>
<path d="M485.788 419.706H385.316V428.403H485.788V419.706Z" fill="white"/>
</g>
<defs>
<clipPath id="clip0_1_2">
<rect width="850" height="591" fill="white"/>
</clipPath>
</defs>
</svg>
