<svg width="850" height="591" viewBox="0 0 850 591" fill="none" xmlns="http://www.w3.org/2000/svg">
<g clip-path="url(#clip0_1_2)">
<path d="M850 0H-1V591H850V0Z" fill="#9FC932"/>
<path d="M384.626 199.482C387.595 200.423 390.554 201 393.531 201.488C396.835 202.03 400.157 202.425 403.488 202.74C405.842 202.966 408.204 203.104 410.557 203.286C414.729 203.61 418.909 203.792 423.093 203.841C428.804 203.908 434.515 203.881 440.226 203.81C443.243 203.774 446.259 203.615 449.272 203.424C452.501 203.219 455.726 202.918 458.951 202.642C461.959 202.385 464.949 201.981 467.93 201.493C470.408 201.089 472.88 200.671 475.296 199.966C476.592 199.588 477.861 199.149 478.985 198.248C479.206 198.43 479.427 198.598 479.631 198.789C481.581 200.605 483.337 202.602 485.067 204.627C486.155 205.901 487.31 207.117 488.411 208.382C489.535 209.674 490.698 210.939 491.733 212.298C498.298 220.91 504.809 229.557 511.055 238.409C514.041 242.644 516.784 247.03 519.425 251.491C521.875 255.633 524.357 259.757 526.816 263.894C530.731 270.491 534.115 277.354 537.088 284.421C537.809 286.134 538.41 287.888 538.786 289.726C539.622 293.814 539.003 297.712 537.322 301.472C536.026 304.371 534.177 306.883 531.939 309.121C523.437 317.604 513.541 324.076 502.872 329.421C493.635 334.046 483.974 337.545 473.999 340.181C468.616 341.602 463.175 342.747 457.685 343.635C454.023 344.226 450.342 344.683 446.653 345.051C439.111 345.801 431.556 346.041 423.983 345.828C420.86 345.739 417.732 345.531 414.618 345.273C411.539 345.02 408.465 344.692 405.399 344.297C401.215 343.759 397.065 343.018 392.938 342.13C384.927 340.408 377.084 338.122 369.445 335.139C360.465 331.636 351.928 327.277 343.979 321.794C338.294 317.87 333.035 313.449 328.319 308.384C327.474 307.478 326.643 306.559 325.833 305.622C324.825 304.455 324.073 303.119 323.458 301.707C321.635 297.508 320.901 293.126 321.299 288.563C321.335 288.172 321.436 287.768 321.587 287.408C323.197 283.577 324.825 279.751 326.453 275.924C326.563 275.667 326.607 275.352 326.966 275.223C327.262 275.329 327.315 275.631 327.417 275.889C328.213 277.886 329.009 279.889 329.801 281.886C331.349 285.784 332.907 289.677 334.428 293.583C334.698 294.271 335.105 294.742 335.738 295.102C337.41 296.052 339.184 296.633 341.094 296.833C344.443 297.184 347.597 296.451 350.645 295.119C354.162 293.588 357.227 291.382 359.943 288.7C366.317 282.414 370.458 274.877 372.285 266.092C372.944 262.931 373.156 259.73 372.78 256.507C372.413 253.387 371.559 250.435 369.821 247.78C369.317 247.012 368.724 246.346 367.99 245.778C362.938 241.831 357.899 237.867 352.861 233.903C352.578 233.681 352.313 233.437 352.087 233.246C352.007 232.762 352.251 232.465 352.445 232.167C356.59 225.815 360.664 219.414 365.411 213.483C366.804 211.743 368.29 210.096 369.874 208.529C370.051 208.351 370.246 208.191 370.414 208.036C370.706 208.116 370.644 208.325 370.635 208.489C370.586 209.696 370.405 210.89 370.077 212.049C369.83 212.932 369.67 213.825 369.586 214.735C369.352 217.314 369.126 219.897 368.901 222.477C368.888 222.623 368.874 222.77 368.879 222.912C368.888 223.2 369.047 223.378 369.348 223.413C369.564 223.44 369.781 223.44 370.002 223.44C373.386 223.453 376.77 223.462 380.154 223.475C380.336 223.475 380.517 223.467 380.698 223.462C381.132 223.458 381.472 223.298 381.68 222.898C381.782 222.707 381.902 222.521 382.017 222.335C384.799 217.709 387.581 213.083 390.359 208.462C390.452 208.307 390.536 208.142 390.647 207.996C390.979 207.557 390.952 207.113 390.647 206.682C390.412 206.358 390.165 206.038 389.886 205.754C388.661 204.525 387.241 203.588 385.591 203.024C383.972 202.469 382.335 201.976 380.601 201.937C380.499 201.937 380.402 201.87 380.265 201.826C380.406 200.569 380.548 199.322 380.689 198.07C382.021 198.554 383.282 199.007 384.626 199.482Z" fill="black"/>
<path d="M374.351 216.115C373.776 215.698 373.28 215.281 372.789 214.846C372.325 214.437 371.887 213.993 371.409 213.603C370.958 213.234 370.86 212.839 371.006 212.258C371.524 210.162 371.767 208.023 371.922 205.874C372.267 201.062 371.241 196.516 369.21 192.175C368.405 190.452 367.454 188.814 366.446 187.207C364.389 183.931 362.509 180.557 360.651 177.166C358.187 172.656 356.435 167.879 355.139 162.916C354.325 159.809 353.666 156.666 353.206 153.487C352.72 150.114 352.556 146.731 352.954 143.335C353.25 140.791 353.817 138.31 354.515 135.846C354.989 134.172 355.741 132.659 356.634 131.194C359.063 127.199 362.115 123.74 365.596 120.651C370.206 116.562 375.355 113.286 380.858 110.556C387.466 107.271 394.398 104.878 401.555 103.134C405.762 102.108 410.017 101.331 414.313 100.772C420.568 99.9597 426.849 99.6801 433.153 99.7955C436.868 99.8665 440.566 100.111 444.256 100.532C453.691 101.62 462.879 103.729 471.712 107.28C477.476 109.597 482.935 112.474 487.947 116.167C491.751 118.973 495.175 122.173 498.041 125.951C500.35 128.992 502.191 132.29 503.411 135.926C504.079 137.91 504.562 139.921 504.508 142.034C504.5 142.323 504.535 142.616 504.566 142.909C504.809 144.951 504.716 146.988 504.548 149.03C504.026 155.325 502.08 161.238 499.74 167.04C497.816 171.812 495.639 176.469 493.423 181.108C492.039 184.002 490.672 186.905 489.499 189.897C488.593 192.21 487.858 194.576 487.372 197.018C486.929 199.251 487.058 201.448 487.717 203.619C487.792 203.863 487.867 204.107 487.947 204.351C488.035 204.622 487.973 204.857 487.761 205.044C487.535 205.239 487.283 205.195 487.049 205.066C486.797 204.929 486.527 204.8 486.315 204.609C485.527 203.908 484.753 203.184 483.979 202.465C483.506 202.025 483.253 201.493 483.156 200.844C482.931 199.331 482.656 197.821 482.404 196.308C482.386 196.201 482.382 196.09 482.355 195.984C481.997 194.403 482.086 194.545 480.71 193.955C479.29 193.347 479.162 193.156 479.365 191.638C479.878 187.864 480.626 184.14 482.187 180.651C484.16 176.247 485.753 171.71 487.182 167.111C487.876 164.883 488.632 162.672 489.252 160.421C490.097 157.354 490.61 154.22 490.827 151.046C491.012 148.32 490.641 145.657 489.959 143.024C489.048 139.495 487.5 136.241 485.629 133.138C485.275 132.548 484.939 131.94 484.319 131.553C484.174 131.465 484.085 131.278 483.979 131.132C481.78 128.126 479.064 125.663 476.034 123.532C472.195 120.837 468.019 118.795 463.639 117.17C458.99 115.444 454.204 114.241 449.316 113.397C443.888 112.46 438.417 112.03 432.918 112.003C429.353 111.985 425.792 112.154 422.24 112.496C416.109 113.086 410.071 114.174 404.139 115.843C397.247 117.783 390.647 120.433 384.507 124.158C380.911 126.337 377.571 128.854 374.634 131.877C372.152 134.43 370.055 137.258 368.542 140.503C367.233 143.322 366.556 146.291 366.468 149.394C366.428 150.708 366.437 152.022 366.455 153.336C366.494 155.907 367.025 158.406 367.644 160.887C368.472 164.186 369.6 167.378 370.931 170.507C373.899 177.494 376.461 184.633 378.548 191.935C378.827 192.916 379.11 193.902 379.305 194.9C379.495 195.859 379.694 196.84 379.672 197.808C379.637 199.153 379.407 200.489 379.243 201.83C378.867 204.875 378.049 207.841 377.491 210.85C377.252 212.142 376.987 213.425 376.73 214.712C376.704 214.855 376.651 214.988 376.611 215.139C375.93 215.56 375.178 215.831 374.351 216.115Z" fill="black"/>
<path d="M350.583 233.424C356.042 237.743 361.416 242.049 366.853 246.275C369.87 248.623 371.524 251.7 372.139 255.411C372.692 258.731 372.502 262.039 371.82 265.315C370.325 272.462 367.1 278.77 362.544 284.421C360.08 287.475 357.262 290.156 353.998 292.345C351.715 293.876 349.291 295.102 346.624 295.816C344.452 296.398 342.262 296.589 340.037 296.163C338.701 295.905 337.476 295.381 336.299 294.698C335.565 294.271 335.198 293.641 335.074 292.873C334.99 292.358 334.822 291.888 334.627 291.417C332.814 287.04 331.022 282.65 329.164 278.286C327.244 273.785 325.687 269.159 324.307 264.467C322.113 257.009 319.587 249.667 316.464 242.542C315.381 240.069 314.208 237.641 313.071 235.195C312.452 233.863 311.625 232.665 310.692 231.537C309.059 229.57 307.308 227.715 305.414 226.001C303.848 224.576 302.123 223.356 300.318 222.25C299.978 222.042 299.628 221.842 299.297 221.62C298.562 221.136 298.452 220.257 299.013 219.56C299.478 218.983 300.053 218.543 300.681 218.162C301.712 217.536 302.804 217.047 303.928 216.612C306.719 215.538 309.599 214.783 312.532 214.224C315.323 213.691 318.132 213.296 320.976 213.301C322.14 213.301 323.303 213.301 324.458 213.514C325.413 213.691 326.214 214.073 326.97 214.717C328.664 216.155 330.438 217.496 332.181 218.872C338.294 223.702 344.408 228.536 350.583 233.424ZM309.533 221.398C311.802 221.074 314.053 220.674 316.278 220.106C318.322 219.582 320.348 218.992 322.29 218.153C323.055 217.82 323.803 217.443 324.542 217.052C324.922 216.848 325.285 216.586 325.617 216.306C325.975 216.009 326.413 215.694 326.32 215.152C326.218 214.544 325.63 214.468 325.165 214.282C324.997 214.215 324.811 214.198 324.635 214.158C323.201 213.86 321.746 213.838 320.291 213.887C316.898 214.002 313.562 214.535 310.262 215.307C307.745 215.893 305.268 216.612 302.906 217.687C302.114 218.046 301.345 218.468 300.601 218.925C300.208 219.169 299.858 219.516 299.558 219.871C299.208 220.284 299.288 220.719 299.757 220.972C300.137 221.176 300.553 221.331 300.973 221.433C302.291 221.762 303.645 221.775 304.99 221.722C306.436 221.664 307.887 221.522 309.533 221.398Z" fill="black"/>
<path d="M318.455 192.304C317.473 192.801 316.544 193.222 315.672 193.751C315.058 194.124 314.491 194.603 313.974 195.105C313.377 195.686 313.12 196.441 313.138 197.289C313.16 198.323 313.598 199.118 314.483 199.641C314.823 199.846 315.204 199.983 315.562 200.165C316.018 200.392 316.495 200.591 316.911 200.876C318.862 202.212 319.127 204.769 317.473 206.473C317.048 206.913 316.531 207.272 316.031 207.632C315.588 207.952 315.106 208.214 314.655 208.52C313.447 209.337 313.24 209.678 313.045 211.09C312.673 211.294 312.359 211.099 312.067 210.89C311.731 210.651 311.497 210.331 311.444 209.905C311.382 209.421 311.421 208.937 311.705 208.538C312.036 208.063 312.412 207.614 312.81 207.197C313.213 206.775 313.669 206.411 314.093 206.007C314.443 205.674 314.708 205.288 314.845 204.818C314.965 204.409 314.863 204.085 314.474 203.903C314.08 203.721 313.664 203.57 313.24 203.481C311.886 203.197 310.515 203.055 309.126 203.037C308.329 203.029 307.52 202.993 306.741 202.833C304.724 202.416 303.468 200.862 303.353 198.816C303.287 197.644 303.552 196.565 304.18 195.584C304.556 195.003 304.954 194.434 305.383 193.893C306.958 191.908 306.918 189.791 305.852 187.629C305.503 186.919 304.972 186.302 304.481 185.574C304.658 185.445 304.875 185.281 305.1 185.121C305.759 184.655 306.343 184.104 306.755 183.403C306.883 183.185 306.993 182.95 307.082 182.715C307.175 182.462 307.02 182.142 306.794 182.089C306.542 182.027 306.374 182.169 306.25 182.36C306.007 182.724 305.826 183.137 305.538 183.456C304.512 184.602 303.269 185.347 301.707 185.556C299.018 185.92 296.492 185.432 294.112 184.166C293.537 183.86 293.006 183.465 292.493 183.061C291.976 182.653 291.578 182.124 291.272 181.534C290.529 180.096 290.631 178.724 291.613 177.428C291.808 177.17 292.038 176.931 292.285 176.642C292.144 176.469 292.015 176.305 291.878 176.149C290.795 174.924 290.529 173.508 290.976 171.959C291.794 169.14 294.621 166.747 297.704 166.476C298.757 166.383 299.712 166.685 300.557 167.351C301.314 167.946 301.915 168.665 302.42 169.477C303.782 171.684 302.663 174.622 300.84 175.736C300.053 176.216 299.213 176.354 298.328 176.038C297.474 175.732 296.965 174.951 297.041 174.094C297.094 173.512 297.319 173.299 297.943 173.259C297.978 173.255 298.014 173.273 298.049 173.268C298.279 173.264 298.487 173.211 298.549 172.949C298.606 172.709 298.434 172.451 298.173 172.363C297.306 172.065 296.435 172.576 296.169 173.539C295.859 174.658 296.28 175.839 297.257 176.536C298.071 177.117 298.991 177.304 299.956 177.086C300.442 176.975 300.933 176.78 301.362 176.518C303.34 175.319 304.419 172.545 303.804 170.316C303.548 169.375 302.99 168.612 302.38 167.879C302.15 167.604 301.906 167.338 301.641 167.04C302.663 165.668 303.176 164.199 302.689 162.463C302.915 162.366 303.101 162.277 303.291 162.206C304.092 161.908 304.799 161.469 305.335 160.799C305.556 160.523 305.706 160.177 305.843 159.844C305.936 159.622 305.83 159.418 305.627 159.285C305.45 159.169 305.215 159.24 305.065 159.458C305.003 159.547 304.959 159.649 304.906 159.742C304.176 160.998 303.034 161.544 301.641 161.576C300.681 161.598 299.934 161.087 299.137 160.43C299.518 160.253 299.801 160.124 300.075 159.982C301.053 159.48 301.778 158.743 302.181 157.709C302.623 156.581 302.539 155.485 301.893 154.46C301.34 153.585 300.38 153.221 299.438 153.478C298.372 153.771 297.731 154.881 298.009 155.956C298.036 156.058 298.076 156.177 298.151 156.244C298.253 156.337 298.407 156.462 298.505 156.435C298.66 156.395 298.863 156.266 298.898 156.133C298.965 155.898 298.903 155.631 298.925 155.378C299.005 154.513 299.867 154.082 300.619 154.522C301.022 154.757 301.265 155.125 301.362 155.56C301.442 155.911 301.469 156.284 301.451 156.644C301.376 158.335 299.137 160.217 297.072 159.205C294.563 157.975 294.125 155.623 294.997 153.607C295.125 153.31 295.293 153.026 295.475 152.679C295.196 152.462 294.913 152.249 294.639 152.027C293.082 150.771 292.325 149.146 292.48 147.139C292.551 146.18 292.825 145.284 293.488 144.454C293.634 144.582 293.763 144.689 293.882 144.809C293.957 144.884 294.01 144.986 294.081 145.071C295.355 146.633 296.974 146.953 298.744 145.981C299.425 145.608 299.991 145.097 300.429 144.454C301.022 143.592 301.163 142.634 300.955 141.63C300.893 141.324 300.712 141.027 300.535 140.756C300.407 140.556 300.181 140.512 299.956 140.618C299.757 140.711 299.681 140.933 299.765 141.173C299.801 141.275 299.854 141.373 299.898 141.47C300.243 142.23 300.164 142.98 299.77 143.681C299.159 144.769 298.2 145.395 296.974 145.559C296.244 145.657 295.621 145.355 295.099 144.849C294.342 144.107 293.913 143.193 293.767 142.15C293.21 138.217 295.961 135.5 298.775 134.865C300.407 134.497 301.955 134.701 303.437 135.451C304.543 136.01 305.388 136.814 305.892 137.981C306.56 139.526 307.139 141.098 307.414 142.762C307.538 143.517 307.622 144.276 307.489 145.062C306.122 145.599 305.029 146.491 304.096 147.583C303.862 147.858 303.676 148.174 303.49 148.489C303.371 148.689 303.477 148.946 303.676 149.039C303.875 149.132 304.034 149.044 304.158 148.906C304.304 148.742 304.415 148.551 304.556 148.387C305.242 147.565 306.029 146.873 306.967 146.362C307.719 145.954 308.506 145.71 309.378 145.932C309.484 145.958 309.612 146.007 309.696 145.967C309.847 145.892 310.019 145.785 310.09 145.643C310.174 145.475 310.09 145.279 309.913 145.177C309.758 145.088 309.586 145.013 309.413 144.977C309.17 144.924 308.918 144.906 308.639 144.866C308.493 143.859 308.409 142.878 308.197 141.932C307.971 140.942 307.67 139.957 307.308 139.007C306.958 138.092 306.489 137.222 306.051 136.29C307.303 134.266 308.993 132.721 311.262 131.877C312.439 131.438 313.651 131.291 314.907 131.562C315.73 131.74 316.522 131.997 317.287 132.33C318.999 133.076 320.065 134.381 320.618 136.157C321.149 137.866 321.091 139.539 320.406 141.186C319.954 142.274 319.185 143.055 318.132 143.597C316.982 144.187 314.916 143.584 314.204 142.736C313.301 141.666 313.372 139.792 314.394 138.838C314.602 138.647 314.867 138.487 315.133 138.394C315.642 138.212 316.137 138.239 316.522 138.7C316.593 138.785 316.659 138.905 316.747 138.931C316.907 138.976 317.101 139.016 317.247 138.962C317.446 138.896 317.508 138.607 317.42 138.399C317.11 137.662 316.217 137.191 315.336 137.338C314.593 137.462 313.965 137.817 313.483 138.403C312.014 140.188 312.271 143.397 315.027 144.347C315.642 144.56 316.292 144.658 317.008 144.831C317.035 145 317.088 145.239 317.115 145.483C317.256 146.784 317.725 147.961 318.495 149.008C318.729 149.323 319.021 149.599 319.331 149.936C319.601 149.701 319.813 149.519 320.016 149.332C321.246 148.227 322.644 148.151 323.993 149.119C324.533 149.505 324.962 149.998 325.342 150.54C325.528 150.802 325.714 151.068 325.922 151.357C326.147 151.223 326.329 151.112 326.519 151.01C328.408 149.989 330.465 150.056 332.181 151.871C333.486 153.256 334.322 154.895 334.795 156.732C335.008 157.554 335.127 158.384 335.012 159.227C334.955 159.653 335.065 160.008 335.238 160.377C335.715 161.407 336.047 162.481 336.184 163.618C336.923 169.659 332.517 174.773 327.448 175.736C327.129 175.799 326.798 175.821 326.475 175.83C325.594 175.852 324.847 175.563 324.232 174.902C323.378 173.983 322.675 172.971 322.246 171.79C321.795 170.556 321.706 169.3 322.14 168.035C322.445 167.142 323.007 166.432 323.781 165.908C324.825 165.198 325.953 165.105 327.107 165.575C328.103 165.979 328.704 166.942 328.682 167.99C328.66 168.945 327.97 169.739 327.032 169.89C326.612 169.957 326.236 169.837 325.9 169.602C325.723 169.477 325.586 169.291 325.4 169.184C325.298 169.127 325.081 169.118 325.006 169.184C324.891 169.291 324.767 169.495 324.794 169.628C324.834 169.828 324.966 170.037 325.117 170.179C325.882 170.907 326.793 171.022 327.753 170.667C329.275 170.103 329.991 168.527 329.478 166.898C329.085 165.646 328.218 164.852 326.979 164.514C325.524 164.115 324.157 164.368 322.967 165.327C321.467 166.539 320.821 168.141 320.928 170.054C320.998 171.355 321.383 172.571 322.118 173.65C322.569 174.307 323.024 175.008 323.63 175.501C324.338 176.078 324.431 176.735 324.343 177.53C324.272 178.165 324.029 178.728 323.661 179.239C323.493 179.474 323.299 179.692 323.086 179.954C323.29 180.162 323.493 180.362 323.688 180.571C325.134 182.138 325.683 184.024 325.541 186.111C325.462 187.283 324.913 188.268 324.077 189.094C323.294 189.871 322.392 190.483 321.401 190.958C320.459 191.42 319.49 191.842 318.455 192.304ZM318.455 169.841C319.322 169.153 320.034 168.328 320.583 167.369C321.591 165.624 321.949 163.764 321.485 161.784C320.99 159.658 319.888 157.966 317.968 156.861C317.495 156.586 317 156.359 316.438 156.32C316.181 156.302 315.916 156.271 315.792 156.568C315.69 156.808 315.867 157.039 316.278 157.145C317.942 157.576 319.087 158.659 319.862 160.128C321.803 163.813 320.202 167.417 317.539 169.313C317.376 169.433 317.159 169.482 316.969 169.562C316.593 169.242 316.278 168.936 315.925 168.683C315.571 168.43 315.195 168.208 314.805 168.017C314.611 167.919 314.376 167.946 314.226 168.168C314.111 168.341 314.173 168.572 314.398 168.727C314.518 168.807 314.655 168.865 314.779 168.94C315.814 169.606 316.61 170.481 317.128 171.612C317.446 172.314 317.681 173.037 317.787 173.805C317.822 174.05 317.911 174.298 318.03 174.511C318.145 174.724 318.588 174.667 318.672 174.436C318.729 174.272 318.765 174.081 318.747 173.908C318.663 173.029 318.45 172.185 318.07 171.386C317.928 171.093 317.791 170.8 317.637 170.467C317.88 170.281 318.11 170.108 318.455 169.841Z" fill="white"/>
<path d="M468.081 189.573C470.695 189.964 473.168 190.55 475.596 191.314C476.406 191.567 477.136 191.975 477.711 192.614C478.109 193.054 478.122 193.404 477.843 193.915C477.733 194.119 477.565 194.217 477.357 194.314C475.826 195.02 474.207 195.433 472.571 195.771C469.505 196.401 466.409 196.805 463.299 197.142C458.959 197.613 454.607 197.919 450.249 198.128C446.764 198.296 443.274 198.363 439.783 198.47C432.838 198.683 425.889 198.563 418.949 198.35C414.768 198.221 410.593 197.99 406.421 197.724C401.993 197.44 397.579 197.022 393.182 196.414C390.231 196.006 387.285 195.544 384.414 194.71C383.72 194.505 383.034 194.257 382.357 193.99C382.021 193.857 381.707 193.662 381.406 193.462C381.123 193.276 381.074 193.027 381.203 192.694C381.38 192.228 381.707 191.877 382.132 191.655C382.773 191.318 383.423 190.967 384.113 190.763C385.507 190.35 386.913 189.973 388.338 189.693C391.691 189.032 395.088 188.65 398.49 188.322C406.24 187.567 414.016 187.296 421.797 187.136C422.08 187.132 422.368 187.136 422.691 187.136C422.97 187.94 422.753 188.708 422.832 189.516C423.116 189.906 423.593 190.102 424.049 190.315C426.066 191.274 428.198 191.611 430.414 191.496C431.622 191.433 432.794 191.211 433.913 190.741C434.555 190.475 435.156 190.137 435.674 189.662C435.953 189.409 436.138 189.125 436.161 188.726C436.187 188.255 436.267 187.789 436.329 187.278C436.665 187.261 436.948 187.221 437.231 187.23C440.757 187.358 444.282 187.469 447.803 187.638C450.488 187.767 453.178 187.935 455.859 188.157C458.393 188.366 460.923 188.646 463.454 188.934C464.967 189.098 466.475 189.343 468.081 189.573Z" fill="black"/>
<path d="M419.409 180.997C416.582 176.758 416.303 172.314 418.276 167.804C420.444 162.85 424.297 159.787 429.618 158.859C435.585 157.82 440.827 160.692 443.229 165.531C444.866 168.829 445.074 172.292 443.849 175.737C441.765 181.61 437.572 185.045 431.445 186.093C426.566 186.541 422.496 185.032 419.409 180.997Z" fill="black"/>
<path d="M448.763 202.141C440.036 202.531 431.414 202.54 422.793 202.336C418.612 202.238 414.432 201.994 410.256 201.772C407.823 201.644 405.39 201.479 402.966 201.244C399.998 200.96 397.039 200.6 394.075 200.245C391.439 199.926 388.82 199.482 386.237 198.86C385.179 198.607 384.131 198.288 383.091 197.963C382.609 197.813 382.154 197.568 381.68 197.382C381.096 197.151 380.835 196.756 380.897 196.108C380.95 195.58 380.884 195.038 380.95 194.412C381.211 194.519 381.38 194.567 381.53 194.656C383.056 195.549 384.733 196.037 386.436 196.432C389.023 197.036 391.642 197.457 394.279 197.777C396.588 198.057 398.897 198.336 401.215 198.567C403.13 198.758 405.054 198.913 406.979 199.029C410.102 199.215 413.225 199.375 416.352 199.513C424.425 199.863 432.502 199.841 440.58 199.708C443.49 199.659 446.397 199.499 449.303 199.371C451.086 199.291 452.864 199.202 454.642 199.073C456.889 198.909 459.141 198.727 461.384 198.496C463.445 198.288 465.506 198.048 467.559 197.755C470.439 197.346 473.305 196.836 476.052 195.828C476.565 195.642 477.065 195.429 477.574 195.229C477.733 195.167 477.897 195.118 478.104 195.047C478.277 195.495 478.219 195.895 478.237 196.285C478.25 196.538 478.264 196.8 478.224 197.049C478.149 197.511 477.861 197.852 477.472 198.074C477.065 198.31 476.631 198.505 476.189 198.669C474.548 199.282 472.84 199.641 471.124 199.961C467.652 200.605 464.148 201 460.636 201.337C456.712 201.706 452.793 201.937 448.763 202.141Z" fill="black"/>
<path d="M383.622 217.829C382.888 219.045 382.193 220.195 381.512 221.327C381.181 221.291 381.216 221.074 381.198 220.918C381.163 220.63 381.154 220.337 381.141 220.044C380.964 216.324 380.787 212.608 380.614 208.888C380.539 207.321 380.468 205.754 380.402 204.187C380.389 203.828 380.398 203.468 380.398 203.046C380.645 203.011 380.853 202.931 381.048 202.953C381.698 203.029 382.353 203.091 382.985 203.242C384.949 203.712 386.767 204.533 388.404 205.728C389.192 206.305 389.453 206.607 389.89 207.397C387.829 210.833 385.746 214.295 383.622 217.829Z" fill="black"/>
<path d="M370.201 218.61C370.414 217.154 370.352 215.76 370.679 214.313C371.997 215.232 373.032 216.359 374.205 217.318C375.31 216.777 376.354 216.271 377.39 215.756C377.518 215.694 377.62 215.587 377.668 215.552C378.226 212.795 378.77 210.118 379.314 207.446C379.336 207.348 379.389 207.259 379.442 207.126C379.663 208.214 380.309 221.309 380.203 222.388C380.176 222.41 380.145 222.437 380.119 222.454C380.088 222.472 380.057 222.503 380.026 222.503C376.934 222.512 373.846 222.517 370.754 222.517C370.573 222.517 370.392 222.508 370.21 222.49C370.144 222.481 370.086 222.428 369.971 222.37C369.856 221.154 370.17 219.937 370.201 218.61Z" fill="black"/>
<path d="M434.139 186.426C434.595 186.271 434.971 186.137 435.439 185.973C435.355 186.905 435.298 187.771 435.187 188.632C435.165 188.814 434.971 189.005 434.811 189.134C434.241 189.6 433.577 189.902 432.874 190.097C429.919 190.927 427.057 190.665 424.279 189.365C424.213 189.334 424.151 189.294 424.093 189.254C424.036 189.214 423.983 189.165 423.89 189.09C423.704 188.113 423.85 187.096 423.73 186.009C424.628 186.231 425.442 186.479 426.274 186.617C427.132 186.759 428.004 186.83 428.871 186.866C429.738 186.901 430.618 186.897 431.48 186.826C432.339 186.755 433.197 186.581 434.139 186.426Z" fill="black"/>
<path d="M478.914 196.21C478.927 195.677 478.923 195.238 478.954 194.803C478.98 194.452 479.224 194.27 479.551 194.372C479.967 194.501 480.36 194.696 480.781 194.807C481.303 194.945 481.586 195.278 481.692 195.779C481.926 196.92 482.152 198.061 482.364 199.206C482.395 199.38 482.364 199.566 482.338 199.744C482.316 199.895 482.037 200.032 481.9 199.961C481.741 199.881 481.581 199.788 481.449 199.673C480.785 199.104 480.139 198.514 479.467 197.959C479.073 197.635 478.839 197.267 478.905 196.743C478.923 196.601 478.914 196.454 478.914 196.21Z" fill="black"/>
<path d="M317.822 219.067C313.801 220.159 309.807 220.896 305.724 221.078C304.746 221.123 303.764 221.06 302.787 220.976C302.366 220.941 301.937 220.781 301.557 220.585C301.075 220.337 300.986 219.795 301.345 219.382C301.601 219.085 301.911 218.801 302.256 218.619C303.061 218.202 303.879 217.802 304.724 217.478C307.308 216.484 309.993 215.836 312.704 215.316C315.274 214.823 317.858 214.419 320.485 214.38C321.211 214.366 321.941 214.371 322.662 214.424C323.126 214.459 323.604 214.544 324.042 214.704C324.882 215.005 325.033 215.707 324.378 216.297C323.98 216.657 323.502 216.954 323.024 217.198C321.861 217.798 320.622 218.228 319.371 218.61C318.884 218.761 318.397 218.903 317.822 219.067Z" fill="black"/>
<path d="M410.088 224.852H395.955V231.945H410.088V224.852Z" fill="white"/>
<path d="M416.379 257.364C419.579 257.364 422.173 254.76 422.173 251.549C422.173 248.337 419.579 245.733 416.379 245.733C413.178 245.733 410.584 248.337 410.584 251.549C410.584 254.76 413.178 257.364 416.379 257.364Z" fill="#9FC932"/>
<path d="M422.346 217.625C422.195 215.245 419.661 213.35 416.56 213.35C413.455 213.35 410.92 215.245 410.774 217.625H410.765V233.686H410.805C411.141 235.923 413.587 237.659 416.56 237.659C419.533 237.659 421.979 235.923 422.315 233.686H422.355V217.625H422.346Z" fill="#9FC932"/>
<path d="M418.166 333.962C420.647 333.829 422.625 331.574 422.625 328.813C422.625 326.052 420.647 323.796 418.166 323.663V323.659H401.423V323.694C399.091 323.992 397.278 326.167 397.278 328.813C397.278 331.458 399.087 333.634 401.423 333.931V333.967H418.166V333.962Z" fill="#9FC932"/>
<path d="M461.375 333.962C463.856 333.829 465.834 331.574 465.834 328.813C465.834 326.052 463.856 323.796 461.375 323.663V323.659H444.632V323.694C442.3 323.992 440.487 326.167 440.487 328.813C440.487 331.458 442.296 333.634 444.632 333.931V333.967H461.375V333.962Z" fill="#9FC932"/>
<path d="M453.058 217.625C452.908 215.245 450.373 213.35 447.272 213.35C444.172 213.35 441.632 215.245 441.487 217.625H441.478V233.686H441.517C441.854 235.923 444.3 237.659 447.272 237.659C450.245 237.659 452.691 235.923 453.027 233.686H453.067V217.625H453.058Z" fill="#9FC932"/>
<path d="M447.091 257.364C450.291 257.364 452.886 254.76 452.886 251.549C452.886 248.337 450.291 245.733 447.091 245.733C443.891 245.733 441.296 248.337 441.296 251.549C441.296 254.76 443.891 257.364 447.091 257.364Z" fill="#9FC932"/>
<path d="M447.272 277.585C450.473 277.585 453.067 274.981 453.067 271.769C453.067 268.558 450.473 265.954 447.272 265.954C444.072 265.954 441.478 268.558 441.478 271.769C441.478 274.981 444.072 277.585 447.272 277.585Z" fill="#9FC932"/>
<path d="M416.379 277.585C419.579 277.585 422.173 274.981 422.173 271.769C422.173 268.558 419.579 265.954 416.379 265.954C413.178 265.954 410.584 268.558 410.584 271.769C410.584 274.981 413.178 277.585 416.379 277.585Z" fill="#9FC932"/>
<path d="M416.83 304.255C420.03 304.255 422.625 301.652 422.625 298.44C422.625 295.228 420.03 292.625 416.83 292.625C413.629 292.625 411.035 295.228 411.035 298.44C411.035 301.652 413.629 304.255 416.83 304.255Z" fill="#9FC932"/>
<path d="M467.024 224.852H453.7V231.945H467.024V224.852Z" fill="white"/>
<path d="M467.028 258.114H435.453V265.208H467.028V258.114Z" fill="white"/>
<path d="M427.778 258.114H395.955V265.208H427.778V258.114Z" fill="white"/>
<path d="M440.553 224.954H423.593V231.848H440.553V224.954Z" fill="white"/>
<path d="M428.464 272.604V250.719C428.464 249.041 429.822 247.678 431.494 247.678C433.166 247.678 434.524 249.041 434.524 250.719V272.604C434.524 274.282 433.166 275.645 431.494 275.645C429.817 275.64 428.464 274.282 428.464 272.604Z" fill="white"/>
<path d="M423.593 233.739C423.593 233.739 427.389 233.721 429.459 233.748C432.409 233.783 435.988 233.743 435.988 233.743C435.988 233.743 436.059 238.52 431.755 242.839C428.189 246.417 421.912 247.429 421.912 247.429C421.912 247.429 419.709 244.406 416.383 244.526C411.92 244.686 410.588 247.429 410.588 247.429L401.577 247.46L401.67 239.683L418.524 239.696C418.524 239.696 420.709 239.443 422.275 237.446C422.271 237.432 423.664 236.012 423.593 233.739Z" fill="white"/>
<path d="M424.748 289.943L424.973 299.621C424.973 299.621 424.987 301.165 424.089 302.604C423.133 304.131 421.253 304.939 421.253 304.939L421.536 313.302C421.536 313.302 425.518 312.836 428.977 309.582C432.648 306.128 432.79 302.191 432.79 302.191L432.401 289.672" fill="white"/>
<path d="M402.201 283.12L402.104 293.064C402.104 293.064 402.117 294.609 401.219 296.047C400.264 297.574 398.384 298.382 398.384 298.382L398.667 306.746C398.667 306.746 402.648 306.279 406.107 303.026C409.779 299.572 409.92 295.634 409.92 295.634L409.951 283.116" fill="white"/>
<path d="M430.437 317.155L430.339 325.696C430.339 325.696 430.352 327.024 429.455 328.258C428.499 329.567 426.619 330.264 426.619 330.264L426.902 337.447C426.902 337.447 430.883 337.047 434.342 334.251C438.014 331.285 438.156 327.907 438.156 327.907L438.187 317.155" fill="white"/>
<path d="M401.277 240.007H400.016V247.451H401.277V240.007Z" fill="white"/>
<path d="M401.277 239.652H400.016V247.451H401.277V239.652Z" fill="white"/>
<path d="M399.764 239.652H398.857V247.451H399.764V239.652Z" fill="white"/>
<path d="M398.614 239.652H397.906V247.451H398.614V239.652Z" fill="white"/>
<path d="M397.602 239.652H397.3V247.451H397.602V239.652Z" fill="white"/>
<path d="M396.995 239.652H396.694V247.451H396.995V239.652Z" fill="white"/>
<path d="M436.749 233.797L440.372 233.734C440.372 233.734 439.938 239.075 446.631 239.714L461.087 239.417L461.131 247.38L452.926 247.416C452.926 247.416 451.232 244.921 447.724 244.686C443.88 244.428 441.876 247.03 441.876 247.03C441.876 247.03 439.872 247.172 436.957 245.578C434.825 244.415 432.989 242.528 432.989 242.528C432.989 242.528 434.688 240.602 435.621 238.52C435.63 238.529 436.749 235.936 436.749 233.797Z" fill="white"/>
<path d="M462.41 239.417H461.348V247.42H462.41V239.417Z" fill="white"/>
<path d="M463.414 239.417H462.556V247.42H463.414V239.417Z" fill="white"/>
<path d="M464.223 239.417H463.569V247.42H464.223V239.417Z" fill="white"/>
<path d="M464.776 239.417H464.374V247.42H464.776V239.417Z" fill="white"/>
<path d="M465.135 239.417H464.931V247.42H465.135V239.417Z" fill="white"/>
<path d="M432.405 283.12H402.201V290.125H432.405V283.12Z" fill="white"/>
<path d="M420.298 305.281L420.961 305.041L421.143 313.458L420.497 313.564L420.298 305.281Z" fill="white"/>
<path d="M419.718 305.414L420.174 305.307L420.298 313.6L419.855 313.613L419.718 305.414Z" fill="white"/>
<path d="M419.245 305.547L419.617 305.445L419.718 313.6L419.356 313.613L419.245 305.547Z" fill="white"/>
<path d="M418.873 305.591L419.144 305.578L419.246 313.613H418.984L418.873 305.591Z" fill="white"/>
<path d="M418.714 305.591L418.829 305.578L418.873 313.613H418.763L418.714 305.591Z" fill="white"/>
<path d="M397.539 298.684L398.202 298.44L398.384 306.861L397.738 306.963L397.539 298.684Z" fill="white"/>
<path d="M396.959 298.813L397.415 298.711L397.539 307.003L397.096 307.016L396.959 298.813Z" fill="white"/>
<path d="M396.482 298.946L396.858 298.844L396.959 307.003L396.597 307.016L396.482 298.946Z" fill="white"/>
<path d="M396.114 298.99L396.38 298.981L396.483 307.016H396.225L396.114 298.99Z" fill="white"/>
<path d="M395.955 298.99L396.07 298.981L396.114 307.016H396.004L395.955 298.99Z" fill="white"/>
<path d="M425.774 330.557L426.438 330.353L426.619 337.496L425.973 337.585L425.774 330.557Z" fill="white"/>
<path d="M425.195 330.668L425.65 330.579L425.774 337.616L425.332 337.624L425.195 330.668Z" fill="white"/>
<path d="M424.717 330.784L425.093 330.695L425.195 337.616L424.832 337.624L424.717 330.784Z" fill="white"/>
<path d="M424.35 330.819L424.62 330.81L424.718 337.624H424.461L424.35 330.819Z" fill="white"/>
<path d="M424.19 330.819L424.305 330.81L424.349 337.624H424.239L424.19 330.819Z" fill="white"/>
<path d="M466.072 283.12H433.126V290.125H466.072V283.12Z" fill="white"/>
<path d="M460.472 290.125C460.472 293.091 460.778 294.884 459.694 296.487C458.495 298.258 455.89 299.017 453.439 299.012C453.359 299.012 453.284 299.012 453.204 299.012L436.293 299.283V303.598C436.293 303.598 453.235 303.443 453.2 303.469C456.332 303.319 460.313 303.199 462.728 301.494C464.918 299.949 465.927 298.582 465.927 296.669C465.922 296.682 465.944 296.651 465.935 296.664L466.072 290.054" fill="white"/>
<path d="M464.153 306.692C461.857 306.692 451.488 307.403 449.604 306.479C447.52 305.463 447.436 303.243 447.321 300.983C447.317 300.917 447.321 300.85 447.321 300.784L447.215 290.534H442.088C442.088 290.534 442.11 300.81 442.079 300.779C442.256 303.443 442.013 306.43 444.402 308.881C446.392 310.918 447.626 311.154 450.139 311.611C450.126 311.606 450.152 311.615 450.134 311.611L464.246 311.593" fill="white"/>
<path d="M436.01 299.301H435.271V303.598H436.01V299.301Z" fill="white"/>
<path d="M434.913 299.301H434.281V303.598H434.913V299.301Z" fill="white"/>
<path d="M434.074 299.301H433.754V303.598H434.074V299.301Z" fill="white"/>
<path d="M465.126 306.67H464.44V311.606H465.126V306.67Z" fill="white"/>
<path d="M465.86 306.67H465.387V311.606H465.86V306.67Z" fill="white"/>
<path d="M466.45 306.67H466.077V311.606H466.45V306.67Z" fill="white"/>
<path d="M467.029 306.67H466.763V311.606H467.029V306.67Z" fill="white"/>
<path d="M431.379 308.162C431.379 308.162 442.526 308.011 442.526 308.117C443.574 309.777 444.986 311.198 447.1 311.757L447.144 315.588L424.982 315.553C424.982 315.553 424.907 312.956 424.965 313.005C427.973 312.206 430.052 310.208 431.379 308.162Z" fill="white"/>
<path d="M466.077 316.365H398.738V321.932H466.077V316.365Z" fill="white"/>
</g>
<defs>
<clipPath id="clip0_1_2">
<rect width="850" height="591" fill="white"/>
</clipPath>
</defs>
</svg>
