<svg width="850" height="591" viewBox="0 0 850 591" fill="none" xmlns="http://www.w3.org/2000/svg">
<g clip-path="url(#clip0_1_2)">
<path d="M850 0H-1V591H850V0Z" fill="#9FC932"/>
<path d="M384.626 222.482C387.595 223.423 390.554 224 393.531 224.488C396.835 225.03 400.157 225.425 403.488 225.74C405.842 225.966 408.204 226.104 410.557 226.286C414.729 226.61 418.909 226.792 423.093 226.841C428.804 226.908 434.515 226.881 440.226 226.81C443.243 226.774 446.259 226.615 449.272 226.424C452.501 226.219 455.726 225.918 458.951 225.642C461.959 225.385 464.949 224.981 467.93 224.493C470.408 224.089 472.88 223.671 475.296 222.966C476.592 222.588 477.861 222.149 478.985 221.248C479.206 221.43 479.427 221.598 479.631 221.789C481.581 223.605 483.337 225.602 485.067 227.627C486.155 228.901 487.31 230.117 488.411 231.382C489.535 232.674 490.698 233.939 491.733 235.298C498.298 243.91 504.809 252.557 511.055 261.409C514.041 265.644 516.784 270.03 519.425 274.491C521.875 278.633 524.357 282.757 526.816 286.894C530.731 293.491 534.115 300.354 537.088 307.421C537.809 309.134 538.41 310.888 538.786 312.726C539.622 316.814 539.003 320.712 537.322 324.472C536.026 327.371 534.177 329.883 531.939 332.121C523.437 340.604 513.541 347.076 502.872 352.421C493.635 357.046 483.974 360.545 473.999 363.181C468.616 364.602 463.175 365.747 457.685 366.635C454.023 367.226 450.342 367.683 446.653 368.051C439.111 368.801 431.556 369.041 423.983 368.828C420.86 368.739 417.732 368.531 414.618 368.273C411.539 368.02 408.465 367.692 405.399 367.297C401.215 366.759 397.065 366.018 392.938 365.13C384.927 363.408 377.084 361.122 369.445 358.139C360.465 354.636 351.928 350.277 343.979 344.794C338.294 340.87 333.035 336.449 328.319 331.384C327.474 330.478 326.643 329.559 325.833 328.622C324.825 327.455 324.073 326.119 323.458 324.707C321.635 320.508 320.901 316.126 321.299 311.563C321.335 311.172 321.436 310.768 321.587 310.408C323.197 306.577 324.825 302.751 326.453 298.924C326.563 298.667 326.607 298.352 326.966 298.223C327.262 298.329 327.315 298.631 327.417 298.889C328.213 300.886 329.009 302.889 329.801 304.886C331.349 308.784 332.907 312.677 334.428 316.583C334.698 317.271 335.105 317.742 335.738 318.102C337.41 319.052 339.184 319.633 341.094 319.833C344.443 320.184 347.597 319.451 350.645 318.119C354.162 316.588 357.227 314.382 359.943 311.7C366.317 305.414 370.458 297.877 372.285 289.092C372.944 285.931 373.156 282.73 372.78 279.507C372.413 276.387 371.559 273.435 369.821 270.78C369.317 270.012 368.724 269.346 367.99 268.778C362.938 264.831 357.899 260.867 352.861 256.903C352.578 256.681 352.313 256.437 352.087 256.246C352.007 255.762 352.251 255.465 352.445 255.167C356.59 248.815 360.664 242.414 365.411 236.483C366.804 234.743 368.29 233.096 369.874 231.529C370.051 231.351 370.246 231.191 370.414 231.036C370.706 231.116 370.644 231.325 370.635 231.489C370.586 232.696 370.405 233.89 370.077 235.049C369.83 235.932 369.67 236.825 369.586 237.735C369.352 240.314 369.126 242.897 368.901 245.477C368.888 245.623 368.874 245.77 368.879 245.912C368.888 246.2 369.047 246.378 369.348 246.413C369.564 246.44 369.781 246.44 370.002 246.44C373.386 246.453 376.77 246.462 380.154 246.475C380.336 246.475 380.517 246.467 380.698 246.462C381.132 246.458 381.472 246.298 381.68 245.898C381.782 245.707 381.902 245.521 382.017 245.335C384.799 240.709 387.581 236.083 390.359 231.462C390.452 231.307 390.536 231.142 390.647 230.996C390.979 230.557 390.952 230.113 390.647 229.682C390.412 229.358 390.165 229.038 389.886 228.754C388.661 227.525 387.241 226.588 385.591 226.024C383.972 225.469 382.335 224.976 380.601 224.937C380.499 224.937 380.402 224.87 380.265 224.826C380.406 223.569 380.548 222.322 380.689 221.07C382.021 221.554 383.282 222.007 384.626 222.482Z" fill="black"/>
<path d="M374.351 239.115C373.776 238.698 373.28 238.281 372.789 237.846C372.325 237.437 371.887 236.993 371.409 236.603C370.958 236.234 370.86 235.839 371.006 235.258C371.524 233.162 371.767 231.023 371.922 228.874C372.267 224.062 371.241 219.516 369.21 215.175C368.405 213.452 367.454 211.814 366.446 210.207C364.389 206.931 362.509 203.557 360.651 200.166C358.187 195.656 356.435 190.879 355.139 185.916C354.325 182.809 353.666 179.666 353.206 176.487C352.72 173.114 352.556 169.731 352.954 166.335C353.25 163.791 353.817 161.31 354.515 158.846C354.989 157.172 355.741 155.659 356.634 154.194C359.063 150.199 362.115 146.74 365.596 143.651C370.206 139.562 375.355 136.286 380.858 133.556C387.466 130.271 394.398 127.878 401.555 126.134C405.762 125.108 410.017 124.331 414.313 123.772C420.568 122.96 426.849 122.68 433.153 122.795C436.868 122.867 440.566 123.111 444.256 123.532C453.691 124.62 462.879 126.729 471.712 130.28C477.476 132.597 482.935 135.474 487.947 139.167C491.751 141.973 495.175 145.173 498.041 148.951C500.35 151.992 502.191 155.29 503.411 158.926C504.079 160.91 504.562 162.921 504.508 165.034C504.5 165.323 504.535 165.616 504.566 165.909C504.809 167.951 504.716 169.988 504.548 172.03C504.026 178.325 502.08 184.238 499.74 190.04C497.816 194.812 495.639 199.469 493.423 204.108C492.039 207.002 490.672 209.905 489.499 212.897C488.593 215.21 487.858 217.576 487.372 220.018C486.929 222.251 487.058 224.448 487.717 226.619C487.792 226.863 487.867 227.107 487.947 227.351C488.035 227.622 487.973 227.857 487.761 228.044C487.535 228.239 487.283 228.195 487.049 228.066C486.797 227.929 486.527 227.8 486.315 227.609C485.527 226.908 484.753 226.184 483.979 225.465C483.506 225.025 483.253 224.493 483.156 223.844C482.931 222.331 482.656 220.821 482.404 219.308C482.386 219.201 482.382 219.09 482.355 218.984C481.997 217.403 482.086 217.545 480.71 216.955C479.29 216.347 479.162 216.156 479.365 214.638C479.878 210.864 480.626 207.14 482.187 203.651C484.16 199.247 485.753 194.71 487.182 190.111C487.876 187.883 488.632 185.672 489.252 183.421C490.097 180.354 490.61 177.22 490.827 174.046C491.012 171.32 490.641 168.657 489.959 166.024C489.048 162.495 487.5 159.241 485.629 156.138C485.275 155.548 484.939 154.94 484.319 154.553C484.174 154.465 484.085 154.278 483.979 154.132C481.78 151.126 479.064 148.663 476.034 146.532C472.195 143.837 468.019 141.795 463.639 140.17C458.99 138.444 454.204 137.241 449.316 136.397C443.888 135.46 438.417 135.03 432.918 135.003C429.353 134.985 425.792 135.154 422.24 135.496C416.109 136.086 410.071 137.174 404.139 138.843C397.247 140.783 390.647 143.433 384.507 147.158C380.911 149.337 377.571 151.854 374.634 154.877C372.152 157.43 370.055 160.258 368.542 163.503C367.233 166.322 366.556 169.291 366.468 172.394C366.428 173.708 366.437 175.022 366.455 176.336C366.494 178.907 367.025 181.406 367.644 183.887C368.472 187.186 369.6 190.378 370.931 193.507C373.899 200.494 376.461 207.633 378.548 214.935C378.827 215.916 379.11 216.902 379.305 217.9C379.495 218.859 379.694 219.84 379.672 220.808C379.637 222.153 379.407 223.489 379.243 224.83C378.867 227.875 378.049 230.841 377.491 233.85C377.252 235.142 376.987 236.425 376.73 237.712C376.704 237.855 376.651 237.988 376.611 238.139C375.93 238.56 375.178 238.831 374.351 239.115Z" fill="black"/>
<path d="M350.583 256.424C356.042 260.743 361.416 265.049 366.853 269.275C369.87 271.623 371.524 274.7 372.139 278.411C372.692 281.731 372.502 285.039 371.82 288.315C370.325 295.462 367.1 301.77 362.544 307.421C360.08 310.475 357.262 313.156 353.998 315.345C351.715 316.876 349.291 318.102 346.624 318.816C344.452 319.398 342.262 319.589 340.037 319.163C338.701 318.905 337.476 318.381 336.299 317.698C335.565 317.271 335.198 316.641 335.074 315.873C334.99 315.358 334.822 314.888 334.627 314.417C332.814 310.04 331.022 305.65 329.164 301.286C327.244 296.785 325.687 292.159 324.307 287.467C322.113 280.009 319.587 272.667 316.464 265.542C315.381 263.069 314.208 260.641 313.071 258.195C312.452 256.863 311.625 255.665 310.692 254.537C309.059 252.57 307.308 250.715 305.414 249.001C303.848 247.576 302.123 246.356 300.318 245.25C299.978 245.042 299.628 244.842 299.297 244.62C298.562 244.136 298.452 243.257 299.013 242.56C299.478 241.983 300.053 241.543 300.681 241.162C301.712 240.536 302.804 240.047 303.928 239.612C306.719 238.538 309.599 237.783 312.532 237.224C315.323 236.691 318.132 236.296 320.976 236.301C322.14 236.301 323.303 236.301 324.458 236.514C325.413 236.691 326.214 237.073 326.97 237.717C328.664 239.155 330.438 240.496 332.181 241.872C338.294 246.702 344.408 251.536 350.583 256.424ZM309.533 244.398C311.802 244.074 314.053 243.674 316.278 243.106C318.322 242.582 320.348 241.992 322.29 241.153C323.055 240.82 323.803 240.443 324.542 240.052C324.922 239.848 325.285 239.586 325.617 239.306C325.975 239.009 326.413 238.694 326.32 238.152C326.218 237.544 325.63 237.468 325.165 237.282C324.997 237.215 324.811 237.198 324.635 237.158C323.201 236.86 321.746 236.838 320.291 236.887C316.898 237.002 313.562 237.535 310.262 238.307C307.745 238.893 305.268 239.612 302.906 240.687C302.114 241.046 301.345 241.468 300.601 241.925C300.208 242.169 299.858 242.516 299.558 242.871C299.208 243.284 299.288 243.719 299.757 243.972C300.137 244.176 300.553 244.331 300.973 244.433C302.291 244.762 303.645 244.775 304.99 244.722C306.436 244.664 307.887 244.522 309.533 244.398Z" fill="black"/>
<path d="M318.455 215.304C317.473 215.801 316.544 216.222 315.672 216.751C315.058 217.124 314.491 217.603 313.974 218.105C313.377 218.686 313.12 219.441 313.138 220.289C313.16 221.323 313.598 222.118 314.483 222.641C314.823 222.846 315.204 222.983 315.562 223.165C316.018 223.392 316.495 223.591 316.911 223.876C318.862 225.212 319.127 227.769 317.473 229.473C317.048 229.913 316.531 230.272 316.031 230.632C315.588 230.952 315.106 231.214 314.655 231.52C313.447 232.337 313.24 232.678 313.045 234.09C312.673 234.294 312.359 234.099 312.067 233.89C311.731 233.651 311.497 233.331 311.444 232.905C311.382 232.421 311.421 231.937 311.705 231.538C312.036 231.063 312.412 230.614 312.81 230.197C313.213 229.775 313.669 229.411 314.093 229.007C314.443 228.674 314.708 228.288 314.845 227.818C314.965 227.409 314.863 227.085 314.474 226.903C314.08 226.721 313.664 226.57 313.24 226.481C311.886 226.197 310.515 226.055 309.126 226.037C308.329 226.029 307.52 225.993 306.741 225.833C304.724 225.416 303.468 223.862 303.353 221.816C303.287 220.644 303.552 219.565 304.18 218.584C304.556 218.003 304.954 217.434 305.383 216.893C306.958 214.908 306.918 212.791 305.852 210.629C305.503 209.919 304.972 209.302 304.481 208.574C304.658 208.445 304.875 208.281 305.1 208.121C305.759 207.655 306.343 207.104 306.755 206.403C306.883 206.185 306.993 205.95 307.082 205.715C307.175 205.462 307.02 205.142 306.794 205.089C306.542 205.027 306.374 205.169 306.25 205.36C306.007 205.724 305.826 206.137 305.538 206.456C304.512 207.602 303.269 208.347 301.707 208.556C299.018 208.92 296.492 208.432 294.112 207.166C293.537 206.86 293.006 206.465 292.493 206.061C291.976 205.653 291.578 205.124 291.272 204.534C290.529 203.096 290.631 201.724 291.613 200.428C291.808 200.17 292.038 199.931 292.285 199.642C292.144 199.469 292.015 199.305 291.878 199.149C290.795 197.924 290.529 196.508 290.976 194.959C291.794 192.14 294.621 189.747 297.704 189.476C298.757 189.383 299.712 189.685 300.557 190.351C301.314 190.946 301.915 191.665 302.42 192.477C303.782 194.684 302.663 197.622 300.84 198.736C300.053 199.216 299.213 199.354 298.328 199.038C297.474 198.732 296.965 197.951 297.041 197.094C297.094 196.512 297.319 196.299 297.943 196.259C297.978 196.255 298.014 196.273 298.049 196.268C298.279 196.264 298.487 196.211 298.549 195.949C298.606 195.709 298.434 195.451 298.173 195.363C297.306 195.065 296.435 195.576 296.169 196.539C295.859 197.658 296.28 198.839 297.257 199.536C298.071 200.117 298.991 200.304 299.956 200.086C300.442 199.975 300.933 199.78 301.362 199.518C303.34 198.319 304.419 195.545 303.804 193.316C303.548 192.375 302.99 191.612 302.38 190.879C302.15 190.604 301.906 190.338 301.641 190.04C302.663 188.668 303.176 187.199 302.689 185.463C302.915 185.366 303.101 185.277 303.291 185.206C304.092 184.908 304.799 184.469 305.335 183.799C305.556 183.523 305.706 183.177 305.843 182.844C305.936 182.622 305.83 182.418 305.627 182.285C305.45 182.169 305.215 182.24 305.065 182.458C305.003 182.547 304.959 182.649 304.906 182.742C304.176 183.998 303.034 184.544 301.641 184.576C300.681 184.598 299.934 184.087 299.137 183.43C299.518 183.253 299.801 183.124 300.075 182.982C301.053 182.48 301.778 181.743 302.181 180.709C302.623 179.581 302.539 178.485 301.893 177.46C301.34 176.585 300.38 176.221 299.438 176.478C298.372 176.771 297.731 177.881 298.009 178.956C298.036 179.058 298.076 179.177 298.151 179.244C298.253 179.337 298.407 179.462 298.505 179.435C298.66 179.395 298.863 179.266 298.898 179.133C298.965 178.898 298.903 178.631 298.925 178.378C299.005 177.513 299.867 177.082 300.619 177.522C301.022 177.757 301.265 178.125 301.362 178.56C301.442 178.911 301.469 179.284 301.451 179.644C301.376 181.335 299.137 183.217 297.072 182.205C294.563 180.975 294.125 178.623 294.997 176.607C295.125 176.31 295.293 176.026 295.475 175.679C295.196 175.462 294.913 175.249 294.639 175.027C293.082 173.771 292.325 172.146 292.48 170.139C292.551 169.18 292.825 168.284 293.488 167.454C293.634 167.582 293.763 167.689 293.882 167.809C293.957 167.884 294.01 167.986 294.081 168.071C295.355 169.633 296.974 169.953 298.744 168.981C299.425 168.608 299.991 168.097 300.429 167.454C301.022 166.592 301.163 165.634 300.955 164.63C300.893 164.324 300.712 164.027 300.535 163.756C300.407 163.556 300.181 163.512 299.956 163.618C299.757 163.711 299.681 163.933 299.765 164.173C299.801 164.275 299.854 164.373 299.898 164.47C300.243 165.23 300.164 165.98 299.77 166.681C299.159 167.769 298.2 168.395 296.974 168.559C296.244 168.657 295.621 168.355 295.099 167.849C294.342 167.107 293.913 166.193 293.767 165.15C293.21 161.217 295.961 158.5 298.775 157.865C300.407 157.497 301.955 157.701 303.437 158.451C304.543 159.01 305.388 159.814 305.892 160.981C306.56 162.526 307.139 164.098 307.414 165.762C307.538 166.517 307.622 167.276 307.489 168.062C306.122 168.599 305.029 169.491 304.096 170.583C303.862 170.858 303.676 171.174 303.49 171.489C303.371 171.689 303.477 171.946 303.676 172.039C303.875 172.132 304.034 172.044 304.158 171.906C304.304 171.742 304.415 171.551 304.556 171.387C305.242 170.565 306.029 169.873 306.967 169.362C307.719 168.954 308.506 168.71 309.378 168.932C309.484 168.958 309.612 169.007 309.696 168.967C309.847 168.892 310.019 168.785 310.09 168.643C310.174 168.475 310.09 168.279 309.913 168.177C309.758 168.088 309.586 168.013 309.413 167.977C309.17 167.924 308.918 167.906 308.639 167.866C308.493 166.859 308.409 165.878 308.197 164.932C307.971 163.942 307.67 162.957 307.308 162.007C306.958 161.092 306.489 160.222 306.051 159.29C307.303 157.266 308.993 155.721 311.262 154.877C312.439 154.438 313.651 154.291 314.907 154.562C315.73 154.74 316.522 154.997 317.287 155.33C318.999 156.076 320.065 157.381 320.618 159.157C321.149 160.866 321.091 162.539 320.406 164.186C319.954 165.274 319.185 166.055 318.132 166.597C316.982 167.187 314.916 166.584 314.204 165.736C313.301 164.666 313.372 162.792 314.394 161.838C314.602 161.647 314.867 161.487 315.133 161.394C315.642 161.212 316.137 161.239 316.522 161.7C316.593 161.785 316.659 161.905 316.747 161.931C316.907 161.976 317.101 162.016 317.247 161.962C317.446 161.896 317.508 161.607 317.42 161.399C317.11 160.662 316.217 160.191 315.336 160.338C314.593 160.462 313.965 160.817 313.483 161.403C312.014 163.188 312.271 166.397 315.027 167.347C315.642 167.56 316.292 167.658 317.008 167.831C317.035 168 317.088 168.239 317.115 168.483C317.256 169.784 317.725 170.961 318.495 172.008C318.729 172.323 319.021 172.599 319.331 172.936C319.601 172.701 319.813 172.519 320.016 172.332C321.246 171.227 322.644 171.151 323.993 172.119C324.533 172.505 324.962 172.998 325.342 173.54C325.528 173.802 325.714 174.068 325.922 174.357C326.147 174.223 326.329 174.112 326.519 174.01C328.408 172.989 330.465 173.056 332.181 174.871C333.486 176.256 334.322 177.895 334.795 179.732C335.008 180.554 335.127 181.384 335.012 182.227C334.955 182.653 335.065 183.008 335.238 183.377C335.715 184.407 336.047 185.481 336.184 186.618C336.923 192.659 332.517 197.773 327.448 198.736C327.129 198.799 326.798 198.821 326.475 198.83C325.594 198.852 324.847 198.563 324.232 197.902C323.378 196.983 322.675 195.971 322.246 194.79C321.795 193.556 321.706 192.3 322.14 191.035C322.445 190.142 323.007 189.432 323.781 188.908C324.825 188.198 325.953 188.105 327.107 188.575C328.103 188.979 328.704 189.942 328.682 190.99C328.66 191.945 327.97 192.739 327.032 192.89C326.612 192.957 326.236 192.837 325.9 192.602C325.723 192.477 325.586 192.291 325.4 192.184C325.298 192.127 325.081 192.118 325.006 192.184C324.891 192.291 324.767 192.495 324.794 192.628C324.834 192.828 324.966 193.037 325.117 193.179C325.882 193.907 326.793 194.022 327.753 193.667C329.275 193.103 329.991 191.527 329.478 189.898C329.085 188.646 328.218 187.852 326.979 187.514C325.524 187.115 324.157 187.368 322.967 188.327C321.467 189.539 320.821 191.141 320.928 193.054C320.998 194.355 321.383 195.571 322.118 196.65C322.569 197.307 323.024 198.008 323.63 198.501C324.338 199.078 324.431 199.735 324.343 200.53C324.272 201.165 324.029 201.728 323.661 202.239C323.493 202.474 323.299 202.692 323.086 202.954C323.29 203.162 323.493 203.362 323.688 203.571C325.134 205.138 325.683 207.024 325.541 209.111C325.462 210.283 324.913 211.268 324.077 212.094C323.294 212.871 322.392 213.483 321.401 213.958C320.459 214.42 319.49 214.842 318.455 215.304ZM318.455 192.841C319.322 192.153 320.034 191.328 320.583 190.369C321.591 188.624 321.949 186.764 321.485 184.784C320.99 182.658 319.888 180.966 317.968 179.861C317.495 179.586 317 179.359 316.438 179.32C316.181 179.302 315.916 179.271 315.792 179.568C315.69 179.808 315.867 180.039 316.278 180.145C317.942 180.576 319.087 181.659 319.862 183.128C321.803 186.813 320.202 190.417 317.539 192.313C317.376 192.433 317.159 192.482 316.969 192.562C316.593 192.242 316.278 191.936 315.925 191.683C315.571 191.43 315.195 191.208 314.805 191.017C314.611 190.919 314.376 190.946 314.226 191.168C314.111 191.341 314.173 191.572 314.398 191.727C314.518 191.807 314.655 191.865 314.779 191.94C315.814 192.606 316.61 193.481 317.128 194.612C317.446 195.314 317.681 196.037 317.787 196.805C317.822 197.05 317.911 197.298 318.03 197.511C318.145 197.724 318.588 197.667 318.672 197.436C318.729 197.272 318.765 197.081 318.747 196.908C318.663 196.029 318.45 195.185 318.07 194.386C317.928 194.093 317.791 193.8 317.637 193.467C317.88 193.281 318.11 193.108 318.455 192.841Z" fill="white"/>
<path d="M468.081 212.573C470.695 212.964 473.168 213.55 475.596 214.314C476.406 214.567 477.136 214.975 477.711 215.614C478.109 216.054 478.122 216.404 477.843 216.915C477.733 217.119 477.565 217.217 477.357 217.314C475.826 218.02 474.207 218.433 472.571 218.771C469.505 219.401 466.409 219.805 463.299 220.142C458.959 220.613 454.607 220.919 450.249 221.128C446.764 221.296 443.274 221.363 439.783 221.47C432.838 221.683 425.889 221.563 418.949 221.35C414.768 221.221 410.593 220.99 406.421 220.724C401.993 220.44 397.579 220.022 393.182 219.414C390.231 219.006 387.285 218.544 384.414 217.71C383.72 217.505 383.034 217.257 382.357 216.99C382.021 216.857 381.707 216.662 381.406 216.462C381.123 216.276 381.074 216.027 381.203 215.694C381.38 215.228 381.707 214.877 382.132 214.655C382.773 214.318 383.423 213.967 384.113 213.763C385.507 213.35 386.913 212.973 388.338 212.693C391.691 212.032 395.088 211.65 398.49 211.322C406.24 210.567 414.016 210.296 421.797 210.136C422.08 210.132 422.368 210.136 422.691 210.136C422.97 210.94 422.753 211.708 422.832 212.516C423.116 212.906 423.593 213.102 424.049 213.315C426.066 214.274 428.198 214.611 430.414 214.496C431.622 214.433 432.794 214.211 433.913 213.741C434.555 213.475 435.156 213.137 435.674 212.662C435.953 212.409 436.138 212.125 436.161 211.726C436.187 211.255 436.267 210.789 436.329 210.278C436.665 210.261 436.948 210.221 437.231 210.23C440.757 210.358 444.282 210.469 447.803 210.638C450.488 210.767 453.178 210.935 455.859 211.157C458.393 211.366 460.923 211.646 463.454 211.934C464.967 212.098 466.475 212.343 468.081 212.573Z" fill="black"/>
<path d="M419.409 203.997C416.582 199.758 416.303 195.314 418.276 190.804C420.444 185.85 424.297 182.787 429.618 181.859C435.585 180.82 440.827 183.692 443.229 188.531C444.866 191.829 445.074 195.292 443.849 198.737C441.765 204.61 437.572 208.045 431.445 209.093C426.566 209.541 422.496 208.032 419.409 203.997Z" fill="black"/>
<path d="M448.763 225.141C440.036 225.531 431.414 225.54 422.793 225.336C418.612 225.238 414.432 224.994 410.256 224.772C407.823 224.644 405.39 224.479 402.966 224.244C399.998 223.96 397.039 223.6 394.075 223.245C391.439 222.926 388.82 222.482 386.237 221.86C385.179 221.607 384.131 221.288 383.091 220.963C382.609 220.813 382.154 220.568 381.68 220.382C381.096 220.151 380.835 219.756 380.897 219.108C380.95 218.58 380.884 218.038 380.95 217.412C381.211 217.519 381.38 217.567 381.53 217.656C383.056 218.549 384.733 219.037 386.436 219.432C389.023 220.036 391.642 220.457 394.279 220.777C396.588 221.057 398.897 221.336 401.215 221.567C403.13 221.758 405.054 221.913 406.979 222.029C410.102 222.215 413.225 222.375 416.352 222.513C424.425 222.863 432.502 222.841 440.58 222.708C443.49 222.659 446.397 222.499 449.303 222.371C451.086 222.291 452.864 222.202 454.642 222.073C456.889 221.909 459.141 221.727 461.384 221.496C463.445 221.288 465.506 221.048 467.559 220.755C470.439 220.346 473.305 219.836 476.052 218.828C476.565 218.642 477.065 218.429 477.574 218.229C477.733 218.167 477.897 218.118 478.104 218.047C478.277 218.495 478.219 218.895 478.237 219.285C478.25 219.538 478.264 219.8 478.224 220.049C478.149 220.511 477.861 220.852 477.472 221.074C477.065 221.31 476.631 221.505 476.189 221.669C474.548 222.282 472.84 222.641 471.124 222.961C467.652 223.605 464.148 224 460.636 224.337C456.712 224.706 452.793 224.937 448.763 225.141Z" fill="black"/>
<path d="M383.622 240.829C382.888 242.045 382.193 243.195 381.512 244.327C381.181 244.291 381.216 244.074 381.198 243.918C381.163 243.63 381.154 243.337 381.141 243.044C380.964 239.324 380.787 235.608 380.614 231.888C380.539 230.321 380.468 228.754 380.402 227.187C380.389 226.828 380.398 226.468 380.398 226.046C380.645 226.011 380.853 225.931 381.048 225.953C381.698 226.029 382.353 226.091 382.985 226.242C384.949 226.712 386.767 227.533 388.404 228.728C389.192 229.305 389.453 229.607 389.89 230.397C387.829 233.833 385.746 237.295 383.622 240.829Z" fill="black"/>
<path d="M370.201 241.61C370.414 240.154 370.352 238.76 370.679 237.313C371.997 238.232 373.032 239.359 374.205 240.318C375.31 239.777 376.354 239.271 377.39 238.756C377.518 238.694 377.62 238.587 377.668 238.552C378.226 235.795 378.77 233.118 379.314 230.446C379.336 230.348 379.389 230.259 379.442 230.126C379.663 231.214 380.309 244.309 380.203 245.388C380.176 245.41 380.145 245.437 380.119 245.454C380.088 245.472 380.057 245.503 380.026 245.503C376.934 245.512 373.846 245.517 370.754 245.517C370.573 245.517 370.392 245.508 370.21 245.49C370.144 245.481 370.086 245.428 369.971 245.37C369.856 244.154 370.17 242.937 370.201 241.61Z" fill="black"/>
<path d="M434.139 209.426C434.595 209.271 434.971 209.137 435.439 208.973C435.355 209.905 435.298 210.771 435.187 211.632C435.165 211.814 434.971 212.005 434.811 212.134C434.241 212.6 433.577 212.902 432.874 213.097C429.919 213.927 427.057 213.665 424.279 212.365C424.213 212.334 424.151 212.294 424.093 212.254C424.036 212.214 423.983 212.165 423.89 212.09C423.704 211.113 423.85 210.096 423.73 209.009C424.628 209.231 425.442 209.479 426.274 209.617C427.132 209.759 428.004 209.83 428.871 209.866C429.738 209.901 430.618 209.897 431.48 209.826C432.339 209.755 433.197 209.581 434.139 209.426Z" fill="black"/>
<path d="M478.914 219.21C478.927 218.677 478.923 218.238 478.954 217.803C478.98 217.452 479.224 217.27 479.551 217.372C479.967 217.501 480.36 217.696 480.781 217.807C481.303 217.945 481.586 218.278 481.692 218.779C481.926 219.92 482.152 221.061 482.364 222.206C482.395 222.38 482.364 222.566 482.338 222.744C482.316 222.895 482.037 223.032 481.9 222.961C481.741 222.881 481.581 222.788 481.449 222.673C480.785 222.104 480.139 221.514 479.467 220.959C479.073 220.635 478.839 220.267 478.905 219.743C478.923 219.601 478.914 219.454 478.914 219.21Z" fill="black"/>
<path d="M317.822 242.067C313.801 243.159 309.807 243.896 305.724 244.078C304.746 244.123 303.764 244.06 302.787 243.976C302.366 243.941 301.937 243.781 301.557 243.585C301.075 243.337 300.986 242.795 301.345 242.382C301.601 242.085 301.911 241.801 302.256 241.619C303.061 241.202 303.879 240.802 304.724 240.478C307.308 239.484 309.993 238.836 312.704 238.316C315.274 237.823 317.858 237.419 320.485 237.38C321.211 237.366 321.941 237.371 322.662 237.424C323.126 237.459 323.604 237.544 324.042 237.704C324.882 238.005 325.033 238.707 324.378 239.297C323.98 239.657 323.502 239.954 323.024 240.198C321.861 240.798 320.622 241.228 319.371 241.61C318.884 241.761 318.397 241.903 317.822 242.067Z" fill="black"/>
<path d="M410.088 247.852H395.955V254.945H410.088V247.852Z" fill="white"/>
<path d="M416.379 280.364C419.579 280.364 422.173 277.76 422.173 274.549C422.173 271.337 419.579 268.733 416.379 268.733C413.178 268.733 410.584 271.337 410.584 274.549C410.584 277.76 413.178 280.364 416.379 280.364Z" fill="#9FC932"/>
<path d="M422.346 240.625C422.195 238.245 419.661 236.35 416.56 236.35C413.455 236.35 410.92 238.245 410.774 240.625H410.765V256.686H410.805C411.141 258.923 413.587 260.659 416.56 260.659C419.533 260.659 421.979 258.923 422.315 256.686H422.355V240.625H422.346Z" fill="#9FC932"/>
<path d="M418.166 356.962C420.647 356.829 422.625 354.574 422.625 351.813C422.625 349.052 420.647 346.796 418.166 346.663V346.659H401.423V346.694C399.091 346.992 397.278 349.167 397.278 351.813C397.278 354.458 399.087 356.634 401.423 356.931V356.967H418.166V356.962Z" fill="#9FC932"/>
<path d="M461.375 356.962C463.856 356.829 465.834 354.574 465.834 351.813C465.834 349.052 463.856 346.796 461.375 346.663V346.659H444.632V346.694C442.3 346.992 440.487 349.167 440.487 351.813C440.487 354.458 442.296 356.634 444.632 356.931V356.967H461.375V356.962Z" fill="#9FC932"/>
<path d="M453.058 240.625C452.908 238.245 450.373 236.35 447.272 236.35C444.172 236.35 441.632 238.245 441.487 240.625H441.478V256.686H441.517C441.854 258.923 444.3 260.659 447.272 260.659C450.245 260.659 452.691 258.923 453.027 256.686H453.067V240.625H453.058Z" fill="#9FC932"/>
<path d="M447.091 280.364C450.291 280.364 452.886 277.76 452.886 274.549C452.886 271.337 450.291 268.733 447.091 268.733C443.891 268.733 441.296 271.337 441.296 274.549C441.296 277.76 443.891 280.364 447.091 280.364Z" fill="#9FC932"/>
<path d="M447.272 300.585C450.473 300.585 453.067 297.981 453.067 294.769C453.067 291.558 450.473 288.954 447.272 288.954C444.072 288.954 441.478 291.558 441.478 294.769C441.478 297.981 444.072 300.585 447.272 300.585Z" fill="#9FC932"/>
<path d="M416.379 300.585C419.579 300.585 422.173 297.981 422.173 294.769C422.173 291.558 419.579 288.954 416.379 288.954C413.178 288.954 410.584 291.558 410.584 294.769C410.584 297.981 413.178 300.585 416.379 300.585Z" fill="#9FC932"/>
<path d="M416.83 327.255C420.03 327.255 422.625 324.652 422.625 321.44C422.625 318.228 420.03 315.625 416.83 315.625C413.629 315.625 411.035 318.228 411.035 321.44C411.035 324.652 413.629 327.255 416.83 327.255Z" fill="#9FC932"/>
<path d="M467.024 247.852H453.7V254.945H467.024V247.852Z" fill="white"/>
<path d="M467.028 281.114H435.453V288.208H467.028V281.114Z" fill="white"/>
<path d="M427.778 281.114H395.955V288.208H427.778V281.114Z" fill="white"/>
<path d="M440.553 247.954H423.593V254.848H440.553V247.954Z" fill="white"/>
<path d="M428.464 295.604V273.719C428.464 272.041 429.822 270.678 431.494 270.678C433.166 270.678 434.524 272.041 434.524 273.719V295.604C434.524 297.282 433.166 298.645 431.494 298.645C429.817 298.64 428.464 297.282 428.464 295.604Z" fill="white"/>
<path d="M423.593 256.739C423.593 256.739 427.389 256.721 429.459 256.748C432.409 256.783 435.988 256.743 435.988 256.743C435.988 256.743 436.059 261.52 431.755 265.839C428.189 269.417 421.912 270.429 421.912 270.429C421.912 270.429 419.709 267.406 416.383 267.526C411.92 267.686 410.588 270.429 410.588 270.429L401.577 270.46L401.67 262.683L418.524 262.696C418.524 262.696 420.709 262.443 422.275 260.446C422.271 260.432 423.664 259.012 423.593 256.739Z" fill="white"/>
<path d="M424.748 312.943L424.973 322.621C424.973 322.621 424.987 324.165 424.089 325.604C423.133 327.131 421.253 327.939 421.253 327.939L421.536 336.302C421.536 336.302 425.518 335.836 428.977 332.582C432.648 329.128 432.79 325.191 432.79 325.191L432.401 312.672" fill="white"/>
<path d="M402.201 306.12L402.104 316.064C402.104 316.064 402.117 317.609 401.219 319.047C400.264 320.574 398.384 321.382 398.384 321.382L398.667 329.746C398.667 329.746 402.648 329.279 406.107 326.026C409.779 322.572 409.92 318.634 409.92 318.634L409.951 306.116" fill="white"/>
<path d="M430.437 340.155L430.339 348.696C430.339 348.696 430.352 350.024 429.455 351.258C428.499 352.567 426.619 353.264 426.619 353.264L426.902 360.447C426.902 360.447 430.883 360.047 434.342 357.251C438.014 354.285 438.156 350.907 438.156 350.907L438.187 340.155" fill="white"/>
<path d="M401.277 263.007H400.016V270.451H401.277V263.007Z" fill="white"/>
<path d="M401.277 262.652H400.016V270.451H401.277V262.652Z" fill="white"/>
<path d="M399.764 262.652H398.857V270.451H399.764V262.652Z" fill="white"/>
<path d="M398.614 262.652H397.906V270.451H398.614V262.652Z" fill="white"/>
<path d="M397.602 262.652H397.3V270.451H397.602V262.652Z" fill="white"/>
<path d="M396.995 262.652H396.694V270.451H396.995V262.652Z" fill="white"/>
<path d="M436.749 256.797L440.372 256.734C440.372 256.734 439.938 262.075 446.631 262.714L461.087 262.417L461.131 270.38L452.926 270.416C452.926 270.416 451.232 267.921 447.724 267.686C443.88 267.428 441.876 270.03 441.876 270.03C441.876 270.03 439.872 270.172 436.957 268.578C434.825 267.415 432.989 265.528 432.989 265.528C432.989 265.528 434.688 263.602 435.621 261.52C435.63 261.529 436.749 258.936 436.749 256.797Z" fill="white"/>
<path d="M462.41 262.417H461.348V270.42H462.41V262.417Z" fill="white"/>
<path d="M463.414 262.417H462.556V270.42H463.414V262.417Z" fill="white"/>
<path d="M464.223 262.417H463.569V270.42H464.223V262.417Z" fill="white"/>
<path d="M464.776 262.417H464.374V270.42H464.776V262.417Z" fill="white"/>
<path d="M465.135 262.417H464.931V270.42H465.135V262.417Z" fill="white"/>
<path d="M432.405 306.12H402.201V313.125H432.405V306.12Z" fill="white"/>
<path d="M420.298 328.281L420.961 328.041L421.143 336.458L420.497 336.564L420.298 328.281Z" fill="white"/>
<path d="M419.718 328.414L420.174 328.307L420.298 336.6L419.855 336.613L419.718 328.414Z" fill="white"/>
<path d="M419.245 328.547L419.617 328.445L419.718 336.6L419.356 336.613L419.245 328.547Z" fill="white"/>
<path d="M418.873 328.591L419.144 328.578L419.246 336.613H418.984L418.873 328.591Z" fill="white"/>
<path d="M418.714 328.591L418.829 328.578L418.873 336.613H418.763L418.714 328.591Z" fill="white"/>
<path d="M397.539 321.684L398.202 321.44L398.384 329.861L397.738 329.963L397.539 321.684Z" fill="white"/>
<path d="M396.959 321.813L397.415 321.711L397.539 330.003L397.096 330.016L396.959 321.813Z" fill="white"/>
<path d="M396.482 321.946L396.858 321.844L396.959 330.003L396.597 330.016L396.482 321.946Z" fill="white"/>
<path d="M396.114 321.99L396.38 321.981L396.483 330.016H396.225L396.114 321.99Z" fill="white"/>
<path d="M395.955 321.99L396.07 321.981L396.114 330.016H396.004L395.955 321.99Z" fill="white"/>
<path d="M425.774 353.557L426.438 353.353L426.619 360.496L425.973 360.585L425.774 353.557Z" fill="white"/>
<path d="M425.195 353.668L425.65 353.579L425.774 360.616L425.332 360.624L425.195 353.668Z" fill="white"/>
<path d="M424.717 353.784L425.093 353.695L425.195 360.616L424.832 360.624L424.717 353.784Z" fill="white"/>
<path d="M424.35 353.819L424.62 353.81L424.718 360.624H424.461L424.35 353.819Z" fill="white"/>
<path d="M424.19 353.819L424.305 353.81L424.349 360.624H424.239L424.19 353.819Z" fill="white"/>
<path d="M466.072 306.12H433.126V313.125H466.072V306.12Z" fill="white"/>
<path d="M460.472 313.125C460.472 316.091 460.778 317.884 459.694 319.487C458.495 321.258 455.89 322.017 453.439 322.012C453.359 322.012 453.284 322.012 453.204 322.012L436.293 322.283V326.598C436.293 326.598 453.235 326.443 453.2 326.469C456.332 326.319 460.313 326.199 462.728 324.494C464.918 322.949 465.927 321.582 465.927 319.669C465.922 319.682 465.944 319.651 465.935 319.664L466.072 313.054" fill="white"/>
<path d="M464.153 329.692C461.857 329.692 451.488 330.403 449.604 329.479C447.52 328.463 447.436 326.243 447.321 323.983C447.317 323.917 447.321 323.85 447.321 323.784L447.215 313.534H442.088C442.088 313.534 442.11 323.81 442.079 323.779C442.256 326.443 442.013 329.43 444.402 331.881C446.392 333.918 447.626 334.154 450.139 334.611C450.126 334.606 450.152 334.615 450.134 334.611L464.246 334.593" fill="white"/>
<path d="M436.01 322.301H435.271V326.598H436.01V322.301Z" fill="white"/>
<path d="M434.913 322.301H434.281V326.598H434.913V322.301Z" fill="white"/>
<path d="M434.074 322.301H433.754V326.598H434.074V322.301Z" fill="white"/>
<path d="M465.126 329.67H464.44V334.606H465.126V329.67Z" fill="white"/>
<path d="M465.86 329.67H465.387V334.606H465.86V329.67Z" fill="white"/>
<path d="M466.45 329.67H466.077V334.606H466.45V329.67Z" fill="white"/>
<path d="M467.029 329.67H466.763V334.606H467.029V329.67Z" fill="white"/>
<path d="M431.379 331.162C431.379 331.162 442.526 331.011 442.526 331.117C443.574 332.777 444.986 334.198 447.1 334.757L447.144 338.588L424.982 338.553C424.982 338.553 424.907 335.956 424.965 336.005C427.973 335.206 430.052 333.208 431.379 331.162Z" fill="white"/>
<path d="M466.077 339.365H398.738V344.932H466.077V339.365Z" fill="white"/>
</g>
<defs>
<clipPath id="clip0_1_2">
<rect width="850" height="591" fill="white"/>
</clipPath>
</defs>
</svg>
